<?xml version="1.0" encoding="utf-8"?>
<svg width="800px" height="800px" viewBox="0 0 24 24" version="1.1" xmlns="http://www.w3.org/2000/svg">
  <g transform="translate(0 -1028.4)">
    <path d="M 12 1028.4 C 7.582 1028.4 4 1031.982 4 1036.4 C 4 1037.821 4.382 1039.15 5.031 1040.306 C 5.139 1040.498 5.252 1040.687 5.375 1040.869 L 12 1052.4 L 18.625 1040.869 C 18.727 1040.718 18.815 1040.558 18.906 1040.4 L 18.969 1040.306 C 19.618 1039.15 20 1037.821 20 1036.4 C 20 1031.982 16.418 1028.4 12 1028.4 L 12 1028.4 Z M 12 1032.4 C 14.209 1032.4 16 1034.191 16 1036.4 C 16 1038.609 14.209 1040.4 12 1040.4 C 9.791 1040.4 8 1038.609 8 1036.4 C 8 1034.191 9.791 1032.4 12 1032.4 Z" style="fill: rgb(83, 83, 83);"/>
    <path d="m12 3c-2.7614 0-5 2.2386-5 5 0 2.761 2.2386 5 5 5 2.761 0 5-2.239 5-5 0-2.7614-2.239-5-5-5zm0 2c1.657 0 3 1.3431 3 3s-1.343 3-3 3-3-1.3431-3-3 1.343-3 3-3z" transform="translate(0 1028.4)" style="fill: rgb(149, 149, 149);"/>
  </g>
</svg>