<svg id="edIMfcuRBt91" xmlns="http://www.w3.org/2000/svg" xmlns:xlink="http://www.w3.org/1999/xlink" viewBox="0 0 300 300" shape-rendering="geometricPrecision" text-rendering="geometricPrecision"><g><rect width="250" height="50" rx="0" ry="0" transform="translate(25.213097 55)" fill="#190559" stroke-width="0"/><path d="M59.551706,54.649858q180.448294,0,180.448294,0L150,0Q52.610127,54.299716,59.551706,54.649858Z" fill="#190559" stroke="#000" stroke-width="0.6"/></g><rect width="255" height="50" rx="0" ry="0" transform="translate(22.21 250.05)" stroke-width="0"/><g><rect width="50" height="145" rx="0" ry="0" transform="translate(25 110)" fill="#ffda00" stroke-width="0"/><rect width="50" height="145" rx="0" ry="0" transform="translate(90 110)" fill="#f00" stroke-width="0"/><rect width="50" height="145" rx="0" ry="0" transform="translate(157 110)" fill="#ffda00" stroke-width="0"/><rect width="50" height="145" rx="0" ry="0" transform="translate(225 110)" fill="#f00" stroke-width="0"/></g><g transform="matrix(1.5 0 0 1.5-20.018558-115.308312)"><path d="M59.551706,125.453957C66.493285,124.065642,85.781673,190,140,150q54.218327-40-50,105-56.992795,23.612321-48.496398-40.69384c8.496397-64.306161,11.106523-87.46389,18.048104-88.852203Z" transform="translate(.000003 0.000003)" fill="#fff" stroke="#3f5787" stroke-width="0.6"/><path d="M59.551706,125.453957C66.493285,124.065642,85.781673,190,140,150q54.218327-40-50,105-56.992795,23.612321-48.496398-40.69384c8.496397-64.306161,11.106523-87.46389,18.048104-88.852203Z" transform="translate(59.513756-45.453957)" fill="#fafafa" stroke="#3f5787" stroke-width="0.6"/><path d="M115,136.560483q25-11.106523,27.850647,13.43952l-16.994259-7.438294L115,136.560483" stroke="#fff" stroke-width="0.6"/><path d="M115,136.560483q25-11.106523,27.850647,13.43952l-16.994259-7.438294L115,136.560483" transform="translate(35 16.806793)" stroke="#fff" stroke-width="0.6"/><path d="M110.015193,174.802408q-5.739459,18.520796,9.050269,18.520796t20.934537-5.775541l-29.984806-12.745255Z" transform="translate(6.490601 0)" stroke="#3f5787" stroke-width="0.6"/><ellipse rx="13.21383" ry="5.198883" transform="translate(69.619087 193.507916)" stroke-width="0"/><ellipse rx="13.21383" ry="5.198883" transform="matrix(.707107 0.707107-.707107 0.707107 100.019754 208.019754)" stroke-width="0"/><path d="M50,227.30066q25-6.261152,32.832917,12.997209L50,227.30066" stroke="#3f5787" stroke-width="0.6"/></g></svg>
