<svg xmlns="http://www.w3.org/2000/svg" width="512" height="512" viewBox="0 0 512 512" version="1.1">
	<path d="M 244.500 30.020 C 233.138 31.748, 215.299 38.535, 214.328 41.500 C 213.607 43.703, 239.571 52.126, 252.750 53.965 C 253.607 54.085, 252.842 98.979, 251.974 99.516 C 251.410 99.865, 248.445 100.408, 245.386 100.724 C 239.231 101.359, 237.746 102.957, 240.491 105.990 C 242.137 107.809, 242.120 108.245, 240.145 114.748 C 235.143 131.216, 215.725 151.743, 188 169.872 C 164.834 185.019, 134.455 198.572, 93.448 212.054 C 81.377 216.023, 70.841 219.884, 70.036 220.635 C 67.798 222.721, 70.101 224.310, 80 227.507 C 91.171 231.115, 110.763 240.399, 114.244 243.733 C 117.530 246.882, 117.624 247.929, 115.004 252.226 C 113.906 254.027, 113.006 256.932, 113.004 258.682 C 112.999 262.331, 115.967 264.925, 122.500 266.982 C 124.700 267.675, 126.808 268.525, 127.186 268.871 C 127.563 269.217, 128.139 280.196, 128.466 293.270 C 128.985 314.048, 128.868 317.114, 127.530 317.627 C 125.561 318.383, 125.538 322.886, 127.500 323.638 C 128.756 324.120, 129 327.113, 129 341.999 L 129 359.783 126.500 360.411 C 123.148 361.252, 123.148 364.726, 126.500 366 C 127.875 366.523, 129 367.423, 129 368 C 129 368.577, 127.875 369.477, 126.500 370 C 123.240 371.239, 123.330 373.345, 126.750 375.838 L 129.500 377.843 129.156 406.097 L 128.812 434.352 125.825 438.068 C 122.715 441.938, 121.266 447.941, 122.376 452.363 C 124.875 462.319, 143.812 470.910, 179.773 478.402 L 197.047 482 255.062 482 L 313.077 482 327.573 479.018 C 362.478 471.839, 380.784 465.087, 386.823 457.163 C 390.788 451.960, 390.543 444.643, 386.197 438.477 L 383 433.942 383 405.211 C 383 377.564, 383.075 376.434, 385 375.232 C 387.624 373.593, 387.574 370.383, 384.913 369.688 C 382.069 368.944, 382.809 365.753, 386 365 C 389.725 364.121, 389.760 361.326, 386.056 360.512 L 383 359.841 383 341.988 C 383 325.013, 383.098 324.104, 385 323.500 C 387.587 322.679, 387.576 319.379, 384.982 317.991 C 383.033 316.947, 382.974 316.099, 383.232 292.800 L 383.500 268.690 388.939 266.841 C 398.843 263.476, 401.564 258.201, 396.500 252.182 C 395.125 250.548, 394 248.527, 394 247.690 C 394 243.596, 410.210 234.609, 429.351 228.090 C 440.632 224.248, 442.071 223.504, 441.803 221.650 C 441.552 219.913, 439.852 219.099, 431.909 216.913 C 417.233 212.872, 386.053 202.321, 371 196.301 C 345.447 186.082, 320.987 171.606, 304 156.648 C 289.753 144.103, 277.230 128.407, 272.593 117.280 C 269.579 110.049, 269.353 107.194, 271.662 105.505 C 274.874 103.156, 272.547 101.001, 266.781 100.985 C 263.877 100.976, 260.920 100.602, 260.212 100.152 C 259.269 99.554, 259.001 96.678, 259.212 89.417 L 259.500 79.500 269.277 79.213 C 277.086 78.985, 281.261 79.455, 290.020 81.549 C 296.052 82.991, 301.455 84.015, 302.028 83.824 C 303.614 83.295, 293.767 72.749, 286.737 67.445 C 279.357 61.877, 274.303 59.554, 266.039 57.928 C 260.190 56.777, 258.087 55.682, 259.750 54.654 C 260.181 54.388, 265.475 53.057, 271.516 51.695 C 284.464 48.777, 299.266 43.318, 298.734 41.657 C 298.113 39.716, 285.860 34.139, 277.446 31.969 C 268.254 29.597, 253.153 28.704, 244.500 30.020 M 261.460 127.250 C 264.293 158.206, 271.772 177.870, 286.083 191.993 C 295.189 200.979, 305.013 206.985, 323.705 214.992 C 346.928 224.940, 359.874 227.983, 379 227.988 C 388.653 227.990, 416.439 224.894, 417.652 223.681 C 417.856 223.478, 411.829 222.305, 404.261 221.075 C 379.114 216.989, 354.127 209.582, 337.733 201.354 C 305.565 185.210, 281.617 161.106, 267.425 130.590 C 264.716 124.766, 262.117 120.001, 261.649 120 C 261.180 120, 261.096 123.263, 261.460 127.250 M 247.305 123.750 C 240.646 142.173, 224.337 163.457, 204.764 179.267 C 177.882 200.979, 147.983 213.714, 107.929 220.512 C 100.129 221.836, 93.564 223.102, 93.340 223.326 C 92.918 223.749, 95.316 224.201, 110.500 226.564 C 122.533 228.436, 140.828 228.370, 151.121 226.418 C 163.126 224.140, 178.660 218.756, 192.785 211.976 C 217.251 200.233, 229.300 189.503, 237.982 171.726 C 243.159 161.127, 247.323 146.763, 248.484 135.500 C 248.824 132.200, 249.344 127.813, 249.639 125.750 C 250.198 121.843, 248.515 120.401, 247.305 123.750 M 249.612 172.750 C 248.645 174.813, 245.575 179.995, 242.791 184.266 C 237.203 192.836, 236.421 197.046, 239.363 202.734 C 241.191 206.271, 246.451 210.643, 249.500 211.160 C 251.445 211.491, 251.503 210.914, 251.618 190.250 C 251.683 178.563, 251.654 169, 251.553 169 C 251.453 169, 250.579 170.688, 249.612 172.750 M 258.715 190 C 258.891 200.725, 259.027 210.072, 259.017 210.770 C 258.991 212.722, 266.262 208.665, 269.334 205.014 C 272.397 201.375, 273.593 196.133, 272.241 192.275 C 271.706 190.749, 268.372 185.225, 264.832 180 L 258.395 170.500 258.715 190 M 215 212.580 C 214.175 212.874, 208.550 214.723, 202.500 216.689 C 196.450 218.655, 191.068 220.658, 190.541 221.141 C 189.438 222.149, 191.271 223.603, 201.359 229.724 C 226.922 245.232, 262.270 248.463, 291.332 237.947 C 302.966 233.738, 320.524 223.337, 319.032 221.538 C 318.427 220.809, 312.375 218.365, 305.583 216.106 C 294.969 212.576, 292.031 212, 284.655 212 C 273.890 212, 266.984 214.411, 260.151 220.554 C 257.432 222.999, 254.801 225, 254.306 225 C 253.811 225, 251.675 223.228, 249.560 221.062 C 243.689 215.049, 237.312 212.688, 226 212.339 C 220.775 212.178, 215.825 212.287, 215 212.580 M 293.928 223.509 C 271.444 225.321, 261 227.219, 261 229.494 C 261 231.349, 265.816 232.002, 279.375 231.985 C 293.115 231.968, 301.846 230.297, 309.250 226.267 C 313.305 224.061, 313.850 223.460, 312.337 222.864 C 311.327 222.466, 310.275 222.166, 310 222.198 C 309.725 222.229, 302.493 222.819, 293.928 223.509 M 199.428 225.364 C 203.559 228.884, 212.043 231.897, 219.874 232.625 C 226.421 233.233, 243.077 231.616, 245.767 230.111 C 250.289 227.580, 233.573 224.372, 211.118 223.462 L 196.500 222.869 199.428 225.364 M 162.500 235.492 C 154.250 237.308, 145.813 239.086, 143.750 239.443 C 140.409 240.020, 140 240.413, 140 243.045 C 140 245.604, 140.369 245.999, 142.750 245.993 C 147.234 245.982, 161.064 242.349, 171.954 238.321 C 180.858 235.028, 181.903 234.402, 180.369 233.281 C 179.406 232.576, 178.366 232.043, 178.059 232.095 C 177.751 232.147, 170.750 233.676, 162.500 235.492 M 331.250 232.749 C 328.136 233.790, 330.677 235.831, 338.750 238.773 C 348.629 242.374, 357.041 244.575, 364.750 245.576 C 369.934 246.249, 370 246.224, 370 243.607 C 370 240.303, 368.455 239.635, 355.844 237.491 C 350.534 236.588, 343.109 235.057, 339.344 234.090 C 335.580 233.122, 331.938 232.519, 331.250 232.749 M 208 244.090 C 208 246.831, 229.679 254.996, 242.409 257.050 C 248.985 258.111, 250.331 258.088, 251.081 256.903 C 253.499 253.084, 252.354 252.472, 240.437 251.206 C 232.815 250.397, 225.318 248.825, 218.437 246.594 C 212.697 244.732, 208 243.606, 208 244.090 M 296.724 245.095 C 293.226 247.131, 276.315 250.825, 267.243 251.535 C 257.856 252.269, 257.165 252.660, 258.607 256.418 C 259.411 258.514, 263.423 258.416, 274.176 256.038 C 283.590 253.956, 296.012 249.130, 300 246.004 C 302.285 244.213, 302.328 244.045, 300.500 244.053 C 299.400 244.057, 297.701 244.526, 296.724 245.095 M 186.465 268.886 C 179.098 271.539, 177.131 272.763, 171.180 278.391 C 164.907 284.324, 162.599 288.264, 163.438 291.608 C 164.297 295.033, 165.466 294.586, 168.301 289.749 C 171.565 284.181, 174.717 281.317, 176.081 282.681 C 176.650 283.250, 178.356 287.042, 179.871 291.108 C 182.608 298.450, 182.650 298.498, 186.042 298.215 C 187.920 298.059, 190.479 297.261, 191.729 296.442 C 193.911 295.012, 194 294.407, 194 280.977 C 194 270.443, 193.692 267.009, 192.750 267.036 C 192.063 267.056, 189.234 267.888, 186.465 268.886 M 318.224 281.774 L 318.500 296.456 324 297.676 C 327.025 298.348, 329.784 298.583, 330.132 298.199 C 330.480 297.814, 331.783 294.012, 333.028 289.750 C 334.725 283.938, 335.724 282, 337.023 282 C 339.144 282, 340.220 283.254, 343.950 290.075 L 346.861 295.399 348.062 292.762 C 349.107 290.470, 348.926 289.549, 346.670 285.700 C 342.194 278.063, 333.262 271.560, 323.224 268.632 L 317.947 267.092 318.224 281.774 M 205.240 312.163 C 205.466 350.791, 205.693 356.500, 207 356.500 C 208.260 356.500, 208.580 353.583, 209 338.247 C 209.299 327.333, 209.902 319.894, 210.500 319.747 C 211.155 319.585, 211.672 342.252, 212 385.500 L 212.500 451.500 231.726 451.772 L 250.952 452.043 251.226 414.815 C 251.440 385.733, 251.215 377.037, 250.196 375.075 C 248.570 371.944, 249.395 368.327, 251.917 367.526 C 253.721 366.954, 253.689 366.780, 251.352 364.443 C 248.900 361.990, 248.809 359.015, 251.112 356.550 C 251.601 356.027, 252 340.556, 252 322.169 L 252 288.738 248.465 289.312 C 238.670 290.902, 227.781 298.705, 223.172 307.437 C 220.572 312.363, 220.491 313.044, 220.178 332.610 C 219.918 348.865, 220.146 353.415, 221.372 356.348 C 222.865 359.922, 222.956 359.968, 227.392 359.360 C 231.478 358.800, 232.179 359.026, 234.948 361.794 C 238.706 365.552, 238.843 368.845, 235.411 372.923 C 232.935 375.866, 232.912 376, 234.891 376 C 239.181 376, 244.994 379.139, 245.749 381.862 C 246.685 385.238, 246.592 436.579, 245.644 440.316 C 244.658 444.201, 239.879 446, 230.548 446 C 223.656 446, 222.760 445.758, 219.766 443.082 L 216.500 440.164 216.500 410.187 C 216.500 382.402, 216.636 380.060, 218.354 378.162 C 219.373 377.035, 221.511 375.827, 223.104 375.477 C 224.697 375.127, 226 374.520, 226 374.127 C 226 373.735, 223.835 371.370, 221.189 368.873 C 213.513 361.628, 212.753 357.949, 213.220 330.284 C 213.644 305.092, 213.856 304.095, 220.802 294.604 C 227.331 285.681, 242.716 278, 254.056 278 C 265.877 278, 277.402 282.430, 285.496 290.085 C 296.082 300.096, 298.642 310.917, 297.702 341.671 L 297.177 358.842 292.088 365.481 C 286.666 372.555, 286.071 374, 288.577 374 C 289.444 374, 291.469 375.315, 293.077 376.923 L 296 379.846 296 408.973 C 296 441.241, 295.725 442.854, 289.881 444.892 C 285.878 446.287, 274.686 446.318, 269.752 444.948 C 263.244 443.141, 263 441.883, 263 410.160 C 263 378.446, 262.716 379.603, 271.287 376.457 C 276.438 374.566, 279.871 371.149, 283.182 364.616 C 284.329 362.352, 286.601 358.634, 288.229 356.353 L 291.191 352.207 290.831 333.353 C 290.481 315.042, 290.388 314.319, 287.576 308.200 C 282.925 298.075, 273.821 291.252, 261.390 288.573 L 258.279 287.902 257.559 321.701 C 257.042 345.968, 257.157 356.329, 257.967 358.440 C 258.924 360.934, 258.788 361.795, 257.073 364.115 C 255.647 366.045, 255.412 366.973, 256.275 367.268 C 257.157 367.569, 257.500 371.304, 257.500 380.593 C 257.500 387.692, 257.613 406.672, 257.750 422.771 L 258 452.041 278.250 451.771 L 298.500 451.500 299 385.799 C 299.365 337.785, 299.813 319.786, 300.663 318.936 C 303.454 316.147, 304 319.274, 304 338.059 C 304 348.477, 304.378 357, 304.839 357 C 305.711 357, 306.995 313.983, 306.998 284.667 C 307 271.645, 306.717 267.927, 305.750 268.248 C 304.846 268.548, 304.362 273.203, 304 285.082 C 303.606 298.020, 303.212 301.500, 302.139 301.500 C 301.390 301.500, 300.081 299.700, 299.229 297.500 C 291.307 277.035, 261.904 266.317, 237.237 274.903 C 224.204 279.440, 213.452 289.115, 211.483 298.077 C 211.130 299.685, 210.213 301, 209.445 301 C 208.320 301, 207.996 297.869, 207.775 284.832 C 207.572 272.915, 207.169 268.554, 206.240 268.245 C 205.236 267.912, 205.032 276.851, 205.240 312.163 M 368.339 272.933 C 362.234 275.705, 356.562 281.882, 354.115 288.423 C 351.143 296.364, 351.312 297.780, 355.317 298.532 C 357.142 298.874, 360.179 299.007, 362.067 298.827 L 365.500 298.500 365.213 292 L 364.925 285.500 367.458 288.500 C 368.851 290.150, 370.931 294.316, 372.080 297.757 C 373.228 301.199, 374.524 303.794, 374.958 303.526 C 376.512 302.565, 373.915 293.403, 370.558 288 C 368.678 284.975, 367.591 282.339, 368.141 282.143 C 369.488 281.663, 373.839 285.825, 375.669 289.343 C 377.847 293.530, 378.380 291.886, 376.572 286.560 C 375.707 284.014, 375 279.471, 375 276.465 C 375 270.284, 374.619 270.082, 368.339 272.933 M 137.250 276.828 C 137.543 279.013, 137.170 282.068, 136.382 283.943 C 133.671 290.389, 134.702 291.199, 139.352 286.278 C 142.346 283.109, 144.215 281.869, 145.344 282.302 C 146.734 282.835, 146.381 283.795, 143.045 288.558 C 138.503 295.042, 136.757 301.789, 137.200 311.151 C 137.485 317.177, 137.627 317.500, 140 317.500 C 142.250 317.500, 142.466 317.155, 142.158 314.043 C 141.970 312.142, 141.112 310.071, 140.251 309.442 C 137.895 307.719, 139.259 298.730, 142.726 293.136 C 146.826 286.520, 148.183 286.593, 147.385 293.385 L 146.731 298.950 153.615 298.335 C 157.402 297.997, 160.565 297.671, 160.645 297.610 C 160.724 297.550, 159.941 294.756, 158.905 291.403 C 155.803 281.364, 147.174 273, 139.918 273 C 136.807 273, 136.748 273.085, 137.250 276.828 M 336.607 291.582 C 336.273 292.452, 336 294.252, 336 295.582 C 336 297.514, 336.518 298, 338.579 298 C 340.966 298, 341.107 297.757, 340.462 294.750 C 339.366 289.640, 337.835 288.382, 336.607 291.582 M 171.667 292.667 C 171.300 293.033, 171 294.383, 171 295.667 C 171 297.489, 171.548 298, 173.500 298 C 176.206 298, 176.582 296.956, 174.965 293.934 C 173.893 291.931, 172.816 291.517, 171.667 292.667 M 130.349 309 C 130.349 313.675, 130.522 315.587, 130.732 313.250 C 130.943 310.913, 130.943 307.087, 130.732 304.750 C 130.522 302.413, 130.349 304.325, 130.349 309 M 187.278 304.307 C 183.066 306.495, 183.056 306.513, 183.028 312.250 L 183 318 188 318 L 193 318 193.149 313.250 C 193.231 310.637, 193.337 307.185, 193.383 305.578 C 193.491 301.831, 192.459 301.616, 187.278 304.307 M 149.039 305.189 C 147.518 306.822, 147 308.726, 147 312.689 L 147 318 150.500 318 L 154 318 154 313 C 154 309.177, 154.360 308, 155.531 308 C 157.214 308, 157.546 308.706, 158.467 314.250 C 158.954 317.178, 159.545 318, 161.166 318 C 163.080 318, 163.207 317.542, 162.812 312.084 C 162.271 304.598, 160.970 303, 155.417 303 C 152.241 303, 150.531 303.587, 149.039 305.189 M 170.035 304.934 C 169.466 305.998, 169 309.373, 169 312.434 L 169 318 172.500 318 L 176 318 176 310.500 C 176 303.195, 175.936 303, 173.535 303 C 172.122 303, 170.629 303.825, 170.035 304.934 M 318.855 306.750 C 318.660 308.813, 318.637 312.142, 318.804 314.149 C 319.077 317.419, 319.460 317.864, 322.494 318.433 C 324.357 318.782, 327.032 318.779, 328.440 318.426 C 330.854 317.820, 331 317.418, 331 311.356 C 331 305.559, 330.828 305.018, 329.250 305.830 C 327.194 306.887, 324.825 306.257, 323.700 304.353 C 323.260 303.609, 322.070 303, 321.055 303 C 319.653 303, 319.125 303.900, 318.855 306.750 M 336.807 303.682 C 336.590 304.132, 336.583 307.538, 336.792 311.250 C 337.149 317.615, 337.308 318, 339.585 318 C 341.908 318, 342 317.734, 342 311 C 342 307.150, 341.587 304, 341.082 304 C 340.577 304, 339.497 303.744, 338.683 303.432 C 337.869 303.119, 337.025 303.232, 336.807 303.682 M 350.537 304.959 C 348.187 307.556, 347.206 315.883, 349.108 317.088 C 351.733 318.750, 353 318.048, 353 314.934 C 353 311.146, 354.595 308, 356.516 308 C 358.295 308, 359.436 312.127, 358.589 315.500 C 357.989 317.890, 358.160 318, 362.481 318 C 366.746 318, 367 317.845, 366.994 315.250 C 366.985 310.642, 365.019 305.081, 363.022 304.012 C 359.703 302.236, 352.508 302.782, 350.537 304.959 M 376.682 303.652 C 375.838 304.495, 375.779 314.261, 376.605 316.412 C 377.782 319.480, 379 316.807, 378.985 311.191 C 378.969 305.544, 377.991 302.342, 376.682 303.652 M 274.565 317.928 C 272.310 320.420, 273.327 323.793, 276.580 324.609 C 279.556 325.356, 282 323.539, 282 320.578 C 282 316.090, 277.636 314.535, 274.565 317.928 M 230.040 318.452 C 227.383 321.653, 231.285 326.570, 234.750 324.388 C 238.212 322.207, 236.979 317, 233 317 C 232.035 317, 230.703 317.653, 230.040 318.452 M 137.805 332.177 C 137.228 356.853, 137.338 358.477, 139.612 358.801 C 141.695 359.099, 141.723 358.867, 141.612 341.816 C 141.511 326.200, 141.331 324.496, 139.750 324.191 C 138.208 323.894, 137.977 324.845, 137.805 332.177 M 169.667 324.667 C 169.300 325.033, 169 332.233, 169 340.667 L 169 356 172.500 356 L 176 356 176 340 L 176 324 173.167 324 C 171.608 324, 170.033 324.300, 169.667 324.667 M 375.639 324.694 C 375.288 325.046, 375 332.908, 375 342.167 C 375 356.463, 375.226 359, 376.500 359 C 377.774 359, 378 356.451, 378 342.059 C 378 326.660, 377.482 322.851, 375.639 324.694 M 147.225 341.250 L 147.500 357.500 150.750 357.813 L 154 358.127 154 341.563 L 154 325 150.475 325 L 146.950 325 147.225 341.250 M 183.667 325.667 C 183.300 326.033, 183 333.008, 183 341.167 L 183 356 188 356 L 193 356 193 340.500 L 193 325 188.667 325 C 186.283 325, 184.033 325.300, 183.667 325.667 M 318.660 336.205 C 318.302 342.417, 318.007 349.413, 318.005 351.750 L 318 356 324.526 356 L 331.052 356 330.776 340.750 L 330.500 325.500 324.905 325.205 L 319.311 324.909 318.660 336.205 M 337 340.500 L 337 356 339.500 356 L 342 356 342 340.500 L 342 325 339.500 325 L 337 325 337 340.500 M 358 341.500 L 358 358 362 358 L 366 358 366 341.500 L 366 325 362 325 L 358 325 358 341.500 M 370 341.500 C 370 351.833, 370.374 358, 371 358 C 371.626 358, 372 351.833, 372 341.500 C 372 331.167, 371.626 325, 371 325 C 370.374 325, 370 331.167, 370 341.500 M 159 340.927 C 159 355.400, 159.081 356, 161.027 356 C 162.983 356, 163.044 355.489, 162.777 341.263 C 162.531 328.150, 162.307 326.488, 160.750 326.189 C 159.146 325.881, 159 327.110, 159 340.927 M 348.223 340.737 C 348.469 353.850, 348.693 355.512, 350.250 355.811 C 351.854 356.119, 352 354.890, 352 341.073 C 352 326.600, 351.919 326, 349.973 326 C 348.017 326, 347.956 326.511, 348.223 340.737 M 228.929 333.917 C 226.256 336.591, 225.865 337.575, 226.405 340.277 C 227.259 344.545, 228.956 346.051, 233.612 346.672 C 244.672 348.147, 246.815 333.110, 235.796 331.346 C 232.573 330.830, 231.683 331.163, 228.929 333.917 M 269.806 334.040 C 267.262 336.584, 266.867 337.604, 267.386 340.290 C 268.208 344.545, 271.351 347, 275.976 347 C 284.148 347, 288.048 338.957, 282.545 333.455 C 278.952 329.861, 273.746 330.100, 269.806 334.040 M 228.192 361.713 C 226.923 361.956, 226.051 362.654, 226.255 363.265 C 226.900 365.200, 228.621 365.129, 231.099 363.066 C 233.539 361.034, 233.018 360.791, 228.192 361.713 M 153.500 363.114 C 150.200 363.593, 146.938 364.199, 146.250 364.461 C 144.908 364.972, 144.498 371.572, 145.759 372.351 C 146.177 372.609, 150.227 373.144, 154.759 373.539 L 163 374.258 163 368.129 C 163 361.242, 163.734 361.630, 153.500 363.114 M 169 367.441 C 169 370.434, 169.436 373.152, 169.969 373.481 C 170.502 373.810, 175.386 374.351, 180.822 374.682 C 191.402 375.327, 193.666 374.499, 190.598 371.108 C 188.438 368.721, 188.563 366, 190.833 366 C 193.193 366, 193.998 365.159, 193.324 363.402 C 192.904 362.308, 190.174 362, 180.893 362 L 169 362 169 367.441 M 318.607 363.582 C 318.273 364.452, 318 365.302, 318 365.470 C 318 365.639, 319.603 366.078, 321.562 366.446 C 325.748 367.231, 326.019 370.051, 322 371 C 320.631 371.323, 319.363 372.355, 319.182 373.294 C 318.890 374.810, 319.965 375, 328.845 375 C 334.340 375, 339.548 374.727, 340.418 374.393 C 341.613 373.935, 342 372.344, 342 367.893 L 342 362 330.607 362 C 321.141 362, 319.111 362.267, 318.607 363.582 M 348 368.436 L 348 374.159 354.750 373.528 C 365.825 372.494, 366 372.416, 366 368.540 C 366 366.658, 365.619 364.883, 365.154 364.595 C 364.689 364.308, 360.639 363.766, 356.154 363.392 L 348 362.712 348 368.436 M 138.639 365.694 C 137.496 366.838, 137.964 369.725, 139.500 371 C 140.778 372.060, 141 371.791, 141 369.181 C 141 366.141, 139.867 364.467, 138.639 365.694 M 369.232 368 C 369.232 369.925, 369.438 370.712, 369.689 369.750 C 369.941 368.788, 369.941 367.212, 369.689 366.250 C 369.438 365.288, 369.232 366.075, 369.232 368 M 374.667 365.667 C 373.629 366.704, 373.883 370, 375 370 C 375.550 370, 376 368.875, 376 367.500 C 376 364.882, 375.769 364.564, 374.667 365.667 M 276.468 382.876 C 268.746 386.383, 269 385.424, 269 411.117 L 269 434.091 271.455 436.545 C 273.519 438.610, 274.869 439, 279.955 439 C 290.217 439, 290 439.634, 290 409.655 C 290 386.371, 289.851 384.175, 288.171 382.655 C 285.797 380.506, 281.506 380.587, 276.468 382.876 M 224.974 383.818 L 222.500 385.820 222.200 409.905 L 221.899 433.990 224.404 436.495 C 227.671 439.762, 234.967 440.033, 238 437 C 239.888 435.112, 240 433.667, 240 411.174 C 240 387.724, 239.964 387.315, 237.739 385.224 C 234.327 382.019, 228.053 381.328, 224.974 383.818 M 187 411.648 L 187 439.295 178.620 438.651 C 168.037 437.837, 148.979 433.063, 140.969 429.219 C 136.190 426.925, 134.717 426.575, 134.309 427.637 C 134.021 428.387, 134.056 429.703, 134.385 430.561 C 135.273 432.874, 150.267 439.498, 160 441.877 C 167.308 443.663, 189.163 447, 193.551 447 C 194.786 447, 195 442.338, 195 415.500 L 195 384 191 384 L 187 384 187 411.648 M 317.714 384.619 C 317.321 385.012, 317 399.208, 317 416.167 C 317 446.367, 317.041 447, 319.007 447 C 320.110 447, 325.574 446.315, 331.148 445.478 C 359.952 441.152, 378 434.577, 378 428.412 L 378 425.959 374.250 427.864 C 365.192 432.466, 338.271 439, 328.370 439 L 323.842 439 324.105 411.750 L 324.368 384.500 321.398 384.203 C 319.765 384.039, 318.107 384.227, 317.714 384.619 M 213.459 460.067 C 213.096 460.653, 213.107 461.441, 213.482 461.817 C 213.858 462.192, 232.803 462.651, 255.583 462.836 L 297 463.171 297 461.086 C 297 459.005, 296.900 459, 255.559 459 C 227.287 459, 213.909 459.339, 213.459 460.067 M 205 472.500 L 205 475 255.107 475 C 300.387 475, 305.156 474.848, 304.607 473.418 C 304.273 472.548, 304 471.423, 304 470.918 C 304 470.373, 283.894 470, 254.500 470 L 205 470 205 472.500" stroke="none" fill="black" fill-rule="evenodd"/>
</svg>