<?xml version="1.0" encoding="UTF-8"?>
<!DOCTYPE svg PUBLIC "-//W3C//DTD SVG 1.1//EN" "http://www.w3.org/Graphics/SVG/1.1/DTD/svg11.dtd">
<svg xmlns="http://www.w3.org/2000/svg" version="1.1" width="1138px" height="1024px" style="shape-rendering:geometricPrecision; text-rendering:geometricPrecision; image-rendering:optimizeQuality; fill-rule:evenodd; clip-rule:evenodd" xmlns:xlink="http://www.w3.org/1999/xlink">
<g><path style="opacity:0.928" fill="#010001" d="M 365.5,201.5 C 365.5,201.833 365.5,202.167 365.5,202.5C 363.515,202.859 362.849,203.692 363.5,205C 399.94,216.702 437.274,221.035 475.5,218C 524.913,215.489 572.247,204.322 617.5,184.5C 617.833,187.167 618.167,189.833 618.5,192.5C 617.833,202.505 617.166,212.505 616.5,222.5C 614.885,242.166 613.218,261.832 611.5,281.5C 606.989,324.253 601.656,366.919 595.5,409.5C 594.549,410.919 594.216,412.585 594.5,414.5C 597.5,414.5 600.5,414.5 603.5,414.5C 650.527,417.998 694.86,408.832 736.5,387C 745.241,381.973 753.575,376.473 761.5,370.5C 789.962,349.714 816.628,326.714 841.5,301.5C 848.295,295.875 854.962,290.042 861.5,284C 862.167,283.333 862.833,283.333 863.5,284C 873.144,305.126 882.478,326.293 891.5,347.5C 916.335,407.502 937.501,468.835 955,531.5C 968.443,579.604 976.276,628.604 978.5,678.5C 978.334,686.174 978.5,693.841 979,701.5C 979.383,700.944 979.883,700.611 980.5,700.5C 980.833,700.5 981.167,700.5 981.5,700.5C 981.077,701.265 980.743,702.098 980.5,703C 995.756,765.397 983.922,821.897 945,872.5C 897.158,925.655 838.991,941.155 770.5,919C 740.817,910.837 712.484,899.67 685.5,885.5C 689.373,884.866 693.039,883.866 696.5,882.5C 702.002,880.873 707.668,879.373 713.5,878C 697.894,872.203 683.561,864.369 670.5,854.5C 665.488,849.49 660.155,844.823 654.5,840.5C 650.167,835.5 645.5,830.833 640.5,826.5C 636.868,821.533 632.868,816.867 628.5,812.5C 624.853,806.86 620.853,801.527 616.5,796.5C 610.4,787.287 604.067,778.287 597.5,769.5C 592.748,760.993 587.748,752.66 582.5,744.5C 577.163,734.492 571.83,724.492 566.5,714.5C 558.523,698.218 550.857,681.885 543.5,665.5C 534.641,643.593 525.975,621.593 517.5,599.5C 516.145,600.188 515.145,601.188 514.5,602.5C 511.862,605.474 509.195,608.474 506.5,611.5C 504.167,613.167 502.167,615.167 500.5,617.5C 497.167,620.167 494.167,623.167 491.5,626.5C 488.474,629.195 485.474,631.862 482.5,634.5C 479.808,636.862 477.141,639.196 474.5,641.5C 471.126,644.51 467.792,647.51 464.5,650.5C 459.235,653.435 454.568,657.101 450.5,661.5C 444.811,664.676 439.477,668.342 434.5,672.5C 426.811,677.201 419.144,681.868 411.5,686.5C 394.307,696.261 375.974,702.928 356.5,706.5C 316.051,711.559 280.051,701.392 248.5,676C 235.26,664.762 223.427,652.262 213,638.5C 208.152,629.29 204.485,619.623 202,609.5C 193.498,570.978 189.164,531.978 189,492.5C 188.286,470.489 188.453,448.489 189.5,426.5C 189.5,421.5 189.5,416.5 189.5,411.5C 190.999,381.482 193.999,351.482 198.5,321.5C 198.333,321.167 198.167,320.833 198,320.5C 195.932,322.396 194.099,324.396 192.5,326.5C 192.167,326.5 191.833,326.5 191.5,326.5C 191.954,319.393 193.121,312.393 195,305.5C 200.399,290.637 205.399,275.637 210,260.5C 214.219,232.197 218.219,203.863 222,175.5C 228.612,141.959 241.612,111.293 261,83.5C 267.634,74.529 275.801,67.3624 285.5,62C 296.727,58.9267 302.394,63.0933 302.5,74.5C 300.605,91.7901 300.105,109.123 301,126.5C 306.943,164.939 328.443,189.939 365.5,201.5 Z"/></g>
<g><path style="opacity:1" fill="#870300" d="M 980.5,699.5 C 979.833,692.5 979.167,685.5 978.5,678.5C 976.276,628.604 968.443,579.604 955,531.5C 937.501,468.835 916.335,407.502 891.5,347.5C 891.393,345.621 891.893,345.288 893,346.5C 900.333,355.833 907.667,365.167 915,374.5C 915.464,373.906 915.631,373.239 915.5,372.5C 944.883,446.695 965.216,523.361 976.5,602.5C 979.128,627.091 980.628,651.758 981,676.5C 1021.15,604.776 1030.82,529.109 1010,449.5C 991.36,387.698 958.194,335.198 910.5,292C 829.636,222.433 735.636,183.266 628.5,174.5C 628.737,175.791 628.404,176.791 627.5,177.5C 627.5,176.167 626.833,175.5 625.5,175.5C 544.303,166.953 464.969,177.953 387.5,208.5C 381.199,207.383 375.033,205.716 369,203.5C 367.97,203.164 367.47,202.497 367.5,201.5C 484.375,155.52 603.708,148.02 725.5,179C 810.511,201.733 883.344,244.566 944,307.5C 987.606,354.707 1015.94,410.04 1029,473.5C 1041.77,555.162 1025.6,630.495 980.5,699.5 Z"/></g>
<g><path style="opacity:1" fill="#8c0400" d="M 625.5,175.5 C 549.461,209.839 470.128,220.839 387.5,208.5C 464.969,177.953 544.303,166.953 625.5,175.5 Z"/></g>
<g><path style="opacity:1" fill="#8c0400" d="M 976.5,602.5 C 997.94,523.084 986.773,448.417 943,378.5C 929.563,358.053 914.23,339.053 897,321.5C 896.601,321.728 896.435,322.062 896.5,322.5C 887.929,302.285 879.262,282.118 870.5,262C 869.833,261.333 869.167,261.333 868.5,262C 861.848,268.972 854.848,275.472 847.5,281.5C 847.586,280.504 847.252,279.671 846.5,279C 780.031,234.229 706.698,208.396 626.5,201.5C 626.344,193.471 626.677,185.471 627.5,177.5C 628.404,176.791 628.737,175.791 628.5,174.5C 735.636,183.266 829.636,222.433 910.5,292C 958.194,335.198 991.36,387.698 1010,449.5C 1030.82,529.109 1021.15,604.776 981,676.5C 980.628,651.758 979.128,627.091 976.5,602.5 Z"/></g>
<g><path style="opacity:1" fill="#800300" d="M 625.5,175.5 C 626.833,175.5 627.5,176.167 627.5,177.5C 626.677,185.471 626.344,193.471 626.5,201.5C 625.741,207.401 624.741,213.401 623.5,219.5C 621.591,218.652 619.591,218.318 617.5,218.5C 617.768,220.099 617.434,221.432 616.5,222.5C 617.166,212.505 617.833,202.505 618.5,192.5C 618.167,189.833 617.833,187.167 617.5,184.5C 572.247,204.322 524.913,215.489 475.5,218C 437.274,221.035 399.94,216.702 363.5,205C 362.849,203.692 363.515,202.859 365.5,202.5C 366.167,202.167 366.833,201.833 367.5,201.5C 367.47,202.497 367.97,203.164 369,203.5C 375.033,205.716 381.199,207.383 387.5,208.5C 470.128,220.839 549.461,209.839 625.5,175.5 Z"/></g>
<g><path style="opacity:1" fill="#fefefe" d="M 329.5,198.5 C 357.381,213.069 387.047,221.902 418.5,225C 467.918,229.017 516.585,224.683 564.5,212C 579.29,207.804 593.957,203.304 608.5,198.5C 604.217,283.55 594.05,367.884 578,451.5C 572.01,483.457 562.01,514.123 548,543.5C 516.974,594.86 476.14,636.694 425.5,669C 404.059,682.553 381.059,692.553 356.5,699C 339.303,701.064 322.303,699.897 305.5,695.5C 296.136,681.301 286.969,666.967 278,652.5C 272.707,639.686 271.04,626.353 273,612.5C 273.703,607.262 275.87,602.762 279.5,599C 281.833,598.333 284.167,598.333 286.5,599C 292.057,600.778 297.391,603.111 302.5,606C 305.833,606.667 309.167,606.667 312.5,606C 314.357,604.818 315.357,603.151 315.5,601C 313.144,591.617 308.477,583.617 301.5,577C 291.676,572.255 282.01,567.255 272.5,562C 267.925,557.21 268.592,553.544 274.5,551C 287.191,550.309 299.858,550.642 312.5,552C 324.675,555.339 334.842,561.839 343,571.5C 348.723,578.891 354.056,586.557 359,594.5C 372.208,610.845 387.874,613.845 406,603.5C 408.499,599.338 409.666,594.838 409.5,590C 405.774,562.541 393.441,539.874 372.5,522C 360.738,513.63 347.738,507.963 333.5,505C 324.807,503.461 316.14,501.795 307.5,500C 303.271,498.885 299.271,497.219 295.5,495C 293.513,493.681 292.346,491.848 292,489.5C 291.667,482.833 291.333,476.167 291,469.5C 290.044,468.421 289.211,467.255 288.5,466C 282.085,463.528 275.752,460.862 269.5,458C 265.334,454.835 262.834,450.668 262,445.5C 259.92,434.772 260.253,424.106 263,413.5C 265.375,402.668 268.375,392.001 272,381.5C 280.834,366.495 290.167,351.828 300,337.5C 303.832,330.838 306.832,323.838 309,316.5C 310.879,307.067 309.212,298.4 304,290.5C 291.525,281.407 287.192,269.407 291,254.5C 294.777,243.61 300.11,233.61 307,224.5C 314.336,215.666 321.836,206.999 329.5,198.5 Z"/></g>
<g><path style="opacity:1" fill="#910400" d="M 626.5,201.5 C 706.698,208.396 780.031,234.229 846.5,279C 847.252,279.671 847.586,280.504 847.5,281.5C 842.97,285.531 838.637,289.698 834.5,294C 837.392,296.083 839.725,298.583 841.5,301.5C 816.628,326.714 789.962,349.714 761.5,370.5C 759.017,366.864 755.684,364.031 751.5,362C 759.749,356.055 767.749,349.889 775.5,343.5C 784.075,337.928 792.075,331.595 799.5,324.5C 808.473,316.862 817.14,308.862 825.5,300.5C 765.989,259.823 700.155,235.823 628,228.5C 626.342,228.675 625.009,229.342 624,230.5C 623.363,240.163 622.863,249.83 622.5,259.5C 621.793,265.036 621.126,270.702 620.5,276.5C 617.914,277.48 615.247,277.813 612.5,277.5C 612.768,279.099 612.434,280.432 611.5,281.5C 613.218,261.832 614.885,242.166 616.5,222.5C 617.434,221.432 617.768,220.099 617.5,218.5C 619.591,218.318 621.591,218.652 623.5,219.5C 624.741,213.401 625.741,207.401 626.5,201.5 Z"/></g>
<g><path style="opacity:1" fill="#980400" d="M 799.5,324.5 C 762.349,298.036 721.349,279.536 676.5,269C 658.623,264.854 640.623,261.688 622.5,259.5C 622.863,249.83 623.363,240.163 624,230.5C 625.009,229.342 626.342,228.675 628,228.5C 700.155,235.823 765.989,259.823 825.5,300.5C 817.14,308.862 808.473,316.862 799.5,324.5 Z"/></g>
<g><path style="opacity:0.686" fill="#0f0000" d="M 981.5,700.5 C 981.167,700.5 980.833,700.5 980.5,700.5C 980.5,700.167 980.5,699.833 980.5,699.5C 1025.6,630.495 1041.77,555.162 1029,473.5C 1015.94,410.04 987.606,354.707 944,307.5C 883.344,244.566 810.511,201.733 725.5,179C 603.708,148.02 484.375,155.52 367.5,201.5C 366.833,201.833 366.167,202.167 365.5,202.5C 365.5,202.167 365.5,201.833 365.5,201.5C 419.163,178.919 475.163,165.419 533.5,161C 643.59,151.084 746.924,172.75 843.5,226C 912.59,265.423 965.757,320.256 1003,390.5C 1039.66,468.028 1044.49,547.528 1017.5,629C 1008.51,654.476 996.512,678.309 981.5,700.5 Z"/></g>
<g><path style="opacity:1" fill="#030303" d="M 406.5,254.5 C 416.047,254.291 425.047,256.458 433.5,261C 451.867,268.709 467.367,280.209 480,295.5C 489.5,307.154 497.5,319.82 504,333.5C 505.944,337.318 506.611,341.318 506,345.5C 505.196,346.804 504.029,347.471 502.5,347.5C 499.893,346.863 497.56,345.696 495.5,344C 481.138,329.304 466.471,314.971 451.5,301C 444.167,297 436.833,293 429.5,289C 420.531,286.455 411.864,283.121 403.5,279C 397.007,274.227 395.507,268.394 399,261.5C 401.069,258.594 403.569,256.261 406.5,254.5 Z"/></g>
<g><path style="opacity:1" fill="#9f0400" d="M 622.5,259.5 C 640.623,261.688 658.623,264.854 676.5,269C 721.349,279.536 762.349,298.036 799.5,324.5C 792.075,331.595 784.075,337.928 775.5,343.5C 737.142,316.975 694.809,299.475 648.5,291C 639.155,289.451 629.822,287.951 620.5,286.5C 618.841,295.427 617.841,304.427 617.5,313.5C 616.418,323.157 615.418,332.824 614.5,342.5C 612.313,361.186 609.979,379.853 607.5,398.5C 606.169,403.483 604.836,408.483 603.5,413.5C 600.833,413.5 598.167,413.5 595.5,413.5C 595.5,412.167 595.5,410.833 595.5,409.5C 601.656,366.919 606.989,324.253 611.5,281.5C 612.434,280.432 612.768,279.099 612.5,277.5C 615.247,277.813 617.914,277.48 620.5,276.5C 621.126,270.702 621.793,265.036 622.5,259.5 Z"/></g>
<g><path style="opacity:1" fill="#840300" d="M 896.5,322.5 C 902.835,339.172 909.168,355.838 915.5,372.5C 915.631,373.239 915.464,373.906 915,374.5C 907.667,365.167 900.333,355.833 893,346.5C 891.893,345.288 891.393,345.621 891.5,347.5C 882.478,326.293 873.144,305.126 863.5,284C 862.833,283.333 862.167,283.333 861.5,284C 854.962,290.042 848.295,295.875 841.5,301.5C 839.725,298.583 837.392,296.083 834.5,294C 838.637,289.698 842.97,285.531 847.5,281.5C 854.848,275.472 861.848,268.972 868.5,262C 869.167,261.333 869.833,261.333 870.5,262C 879.262,282.118 887.929,302.285 896.5,322.5 Z"/></g>
<g><path style="opacity:1" fill="#e3e2f8" d="M 251.5,285.5 C 259.713,284.85 267.713,285.684 275.5,288C 285.127,292.455 285.794,297.788 277.5,304C 265.655,307.707 253.655,308.373 241.5,306C 235.882,300.052 236.548,294.718 243.5,290C 246.391,288.726 249.058,287.226 251.5,285.5 Z"/></g>
<g><path style="opacity:1" fill="#a60400" d="M 775.5,343.5 C 767.749,349.889 759.749,356.055 751.5,362C 755.684,364.031 759.017,366.864 761.5,370.5C 753.575,376.473 745.241,381.973 736.5,387C 694.86,408.832 650.527,417.998 603.5,414.5C 603.5,414.167 603.5,413.833 603.5,413.5C 604.836,408.483 606.169,403.483 607.5,398.5C 635.954,399.172 663.954,396.005 691.5,389C 701.821,385.804 711.821,381.971 721.5,377.5C 731.59,372.955 741.257,367.621 750.5,361.5C 709.956,335.206 665.622,319.206 617.5,313.5C 617.841,304.427 618.841,295.427 620.5,286.5C 629.822,287.951 639.155,289.451 648.5,291C 694.809,299.475 737.142,316.975 775.5,343.5 Z"/></g>
<g><path style="opacity:1" fill="#fdfdfd" d="M 644.5,450.5 C 644.5,441.167 644.5,431.833 644.5,422.5C 647.385,422.806 650.052,422.473 652.5,421.5C 685.811,418.923 716.811,409.089 745.5,392C 787.916,365.161 826.083,332.994 860,295.5C 891.264,367.948 918.597,441.948 942,517.5C 959.597,572.083 969.097,628.083 970.5,685.5C 972.371,733.323 962.204,778.323 940,820.5C 920.651,854.085 892.484,876.585 855.5,888C 847.6,890.314 839.6,891.647 831.5,892C 824.023,883.554 818.19,874.054 814,863.5C 812.761,854.451 814.094,845.784 818,837.5C 818.667,832.167 818.667,826.833 818,821.5C 815.753,820.02 813.253,819.353 810.5,819.5C 803.181,820.47 795.848,820.637 788.5,820C 781.134,814.973 779.634,808.473 784,800.5C 785.873,798.291 788.04,796.458 790.5,795C 808.085,789.749 825.418,783.749 842.5,777C 857.785,769.277 868.619,757.444 875,741.5C 884.484,720.97 885.817,699.97 879,678.5C 876.737,672.947 872.57,670.28 866.5,670.5C 857.559,671.265 850.392,675.265 845,682.5C 834.065,700.441 820.565,716.275 804.5,730C 799.49,733.507 794.157,736.507 788.5,739C 784.5,739.667 780.5,739.667 776.5,739C 774.376,737.878 772.543,736.378 771,734.5C 769.755,728.61 769.088,722.61 769,716.5C 768.496,712.98 766.663,710.48 763.5,709C 759.5,708.333 755.5,708.333 751.5,709C 743.831,711.376 735.997,712.876 728,713.5C 719.709,713.208 713.376,709.541 709,702.5C 706.055,694.054 704.055,685.387 703,676.5C 700.732,628.523 699.066,580.523 698,532.5C 696.014,527.504 692.847,523.337 688.5,520C 679.575,515.399 670.908,510.399 662.5,505C 654.043,496.586 648.876,486.42 647,474.5C 645.368,466.578 644.535,458.578 644.5,450.5 Z"/></g>
<g><path style="opacity:1" fill="#ab0500" d="M 617.5,313.5 C 665.622,319.206 709.956,335.206 750.5,361.5C 741.257,367.621 731.59,372.955 721.5,377.5C 689.074,357.745 653.907,345.411 616,340.5C 615.722,341.416 615.222,342.082 614.5,342.5C 615.418,332.824 616.418,323.157 617.5,313.5 Z"/></g>
<g><path style="opacity:1" fill="#020202" d="M 398.5,319.5 C 420.28,320.773 437.78,330.107 451,347.5C 454.172,351.841 456.839,356.508 459,361.5C 463.365,377.136 457.531,382.97 441.5,379C 429.264,374.216 417.264,368.883 405.5,363C 394.863,360.51 384.53,357.177 374.5,353C 372.167,351.667 371.167,349.667 371.5,347C 372.289,342.917 373.789,339.084 376,335.5C 382.283,328.291 389.783,322.958 398.5,319.5 Z"/></g>
<g><path style="opacity:1" fill="#910400" d="M 976.5,602.5 C 965.216,523.361 944.883,446.695 915.5,372.5C 909.168,355.838 902.835,339.172 896.5,322.5C 896.435,322.062 896.601,321.728 897,321.5C 914.23,339.053 929.563,358.053 943,378.5C 986.773,448.417 997.94,523.084 976.5,602.5 Z"/></g>
<g><path style="opacity:1" fill="#7c0300" d="M 189.5,411.5 C 189.657,410.127 189.49,408.793 189,407.5C 187.392,410.382 186.059,413.382 185,416.5C 184.489,402.16 184.655,387.826 185.5,373.5C 186.859,360.445 188.526,347.278 190.5,334C 190.486,332.615 190.152,331.449 189.5,330.5C 190.5,329.167 191.5,327.833 192.5,326.5C 194.099,324.396 195.932,322.396 198,320.5C 198.167,320.833 198.333,321.167 198.5,321.5C 193.999,351.482 190.999,381.482 189.5,411.5 Z"/></g>
<g><path style="opacity:1" fill="#860300" d="M 189.5,330.5 C 190.152,331.449 190.486,332.615 190.5,334C 188.526,347.278 186.859,360.445 185.5,373.5C 185.649,372.448 185.483,371.448 185,370.5C 130.955,460.757 124.288,554.424 165,651.5C 194.528,713.379 237.694,763.546 294.5,802C 380.855,858.515 475.855,886.348 579.5,885.5C 610.409,885.978 641.076,883.478 671.5,878C 671.833,877.667 672.167,877.333 672.5,877C 671.167,876 669.833,875 668.5,874C 669.061,872.434 668.394,871.101 666.5,870C 666.112,868.475 666.112,866.808 666.5,865C 662.282,859.83 658.949,854.497 656.5,849C 656.957,848.586 657.291,848.086 657.5,847.5C 655.673,845.513 654.673,843.179 654.5,840.5C 660.155,844.823 665.488,849.49 670.5,854.5C 670.389,855.117 670.056,855.617 669.5,856C 671.5,858.333 673.5,860.667 675.5,863C 674.939,864.566 675.606,865.899 677.5,867C 677.167,867.333 676.833,867.667 676.5,868C 678.395,870.806 680.728,873.14 683.5,875C 683.167,875.333 682.833,875.667 682.5,876C 684.417,878.696 686.417,881.196 688.5,883.5C 553.91,909.512 426.91,889.012 307.5,822C 246.478,786.645 197.645,738.812 161,678.5C 111.876,590.22 106.209,499.22 144,405.5C 156.15,378.508 171.317,353.508 189.5,330.5 Z"/></g>
<g><path style="opacity:1" fill="#b20500" d="M 721.5,377.5 C 711.821,381.971 701.821,385.804 691.5,389C 663.954,396.005 635.954,399.172 607.5,398.5C 609.979,379.853 612.313,361.186 614.5,342.5C 615.222,342.082 615.722,341.416 616,340.5C 653.907,345.411 689.074,357.745 721.5,377.5 Z"/></g>
<g><path style="opacity:1" fill="#8c0300" d="M 185.5,373.5 C 184.655,387.826 184.489,402.16 185,416.5C 186.059,413.382 187.392,410.382 189,407.5C 189.49,408.793 189.657,410.127 189.5,411.5C 189.5,416.5 189.5,421.5 189.5,426.5C 189.116,431.392 187.616,436.058 185,440.5C 184.5,446.825 184.334,453.158 184.5,459.5C 162.43,515.051 163.597,571.051 188,627.5C 190.333,632.167 192.667,636.833 195,641.5C 195.667,640.167 196.333,640.167 197,641.5C 202.211,651.37 208.211,660.704 215,669.5C 215.667,670.833 216.333,670.833 217,669.5C 225.869,680.036 235.702,689.536 246.5,698C 247.449,698.617 248.282,698.451 249,697.5C 252.821,700.743 256.821,703.743 261,706.5C 261.414,706.043 261.914,705.709 262.5,705.5C 266.417,707.708 270.25,710.041 274,712.5C 274.333,712.167 274.667,711.833 275,711.5C 277.917,713.906 281.083,714.906 284.5,714.5C 287.393,715.74 290.227,717.074 293,718.5C 293.333,718.167 293.667,717.833 294,717.5C 297.477,719.671 301.144,720.337 305,719.5C 309.766,720.13 314.6,721.13 319.5,722.5C 319.833,721.833 320.167,721.167 320.5,720.5C 324.079,720.99 327.579,721.324 331,721.5C 349.513,719.256 366.68,714.756 382.5,708C 381.833,707.667 381.167,707.333 380.5,707C 385.905,704.864 391.238,702.53 396.5,700C 395.833,699.667 395.167,699.333 394.5,699C 400.948,695.694 406.614,691.527 411.5,686.5C 419.144,681.868 426.811,677.201 434.5,672.5C 430.082,679.754 424.415,685.921 417.5,691C 415.441,694.697 412.107,697.697 407.5,700C 406.167,700.667 406.167,701.333 407.5,702C 402.833,704.667 398.167,707.333 393.5,710C 393.833,710.333 394.167,710.667 394.5,711C 389.217,713.058 384.217,715.558 379.5,718.5C 375.909,719.93 372.242,721.097 368.5,722C 368.833,722.333 369.167,722.667 369.5,723C 365.351,724.737 361.017,725.737 356.5,726C 357.167,726.333 357.833,726.667 358.5,727C 353.833,727.667 349.167,728.333 344.5,729C 344.833,729.333 345.167,729.667 345.5,730C 334.613,731.071 323.779,731.571 313,731.5C 308.372,731.007 303.872,730.007 299.5,728.5C 295.833,728.5 292.167,728.5 288.5,728.5C 285.712,727.022 282.878,725.689 280,724.5C 279.667,724.833 279.333,725.167 279,725.5C 275.333,723.5 271.667,721.5 268,719.5C 267.586,719.957 267.086,720.291 266.5,720.5C 263.249,718.625 260.082,716.625 257,714.5C 256.282,715.451 255.449,715.617 254.5,715C 250.049,712.217 245.883,709.05 242,705.5C 241.282,706.451 240.449,706.617 239.5,706C 236.428,703.049 233.261,700.216 230,697.5C 230.398,699.631 231.398,701.631 233,703.5C 277.365,758.507 332.532,799.007 398.5,825C 479.672,856.438 563.338,865.938 649.5,853.5C 648.193,851.075 647.193,848.742 646.5,846.5C 647.476,844.877 646.976,843.543 645,842.5C 644.383,841.551 644.549,840.718 645.5,840C 643.983,837.796 642.65,835.462 641.5,833C 642.089,831.127 641.422,829.46 639.5,828C 640.056,827.617 640.389,827.117 640.5,826.5C 645.5,830.833 650.167,835.5 654.5,840.5C 654.673,843.179 655.673,845.513 657.5,847.5C 657.291,848.086 656.957,848.586 656.5,849C 658.949,854.497 662.282,859.83 666.5,865C 666.112,866.808 666.112,868.475 666.5,870C 668.394,871.101 669.061,872.434 668.5,874C 669.833,875 671.167,876 672.5,877C 672.167,877.333 671.833,877.667 671.5,878C 641.076,883.478 610.409,885.978 579.5,885.5C 475.855,886.348 380.855,858.515 294.5,802C 237.694,763.546 194.528,713.379 165,651.5C 124.288,554.424 130.955,460.757 185,370.5C 185.483,371.448 185.649,372.448 185.5,373.5 Z"/></g>
<g><path style="opacity:1" fill="#030303" d="M 826.5,398.5 C 841.057,395.635 853.557,399.301 864,409.5C 864.481,414.034 862.314,416.534 857.5,417C 846.531,416.995 835.864,418.661 825.5,422C 814.786,430.713 806.286,441.213 800,453.5C 785.614,469.445 767.78,477.945 746.5,479C 741.169,477.36 738.669,473.86 739,468.5C 741.128,465.37 743.628,462.537 746.5,460C 756.341,453.58 766.007,446.913 775.5,440C 785.191,429.309 795.191,418.976 805.5,409C 812.045,404.394 819.045,400.894 826.5,398.5 Z"/></g>
<g><path style="opacity:1" fill="#500300" d="M 595.5,409.5 C 595.5,410.833 595.5,412.167 595.5,413.5C 598.167,413.5 600.833,413.5 603.5,413.5C 603.5,413.833 603.5,414.167 603.5,414.5C 600.5,414.5 597.5,414.5 594.5,414.5C 594.216,412.585 594.549,410.919 595.5,409.5 Z"/></g>
<g><path style="opacity:1" fill="#a2a2a2" d="M 652.5,421.5 C 650.052,422.473 647.385,422.806 644.5,422.5C 644.5,431.833 644.5,441.167 644.5,450.5C 643.506,441.014 643.173,431.348 643.5,421.5C 646.5,421.5 649.5,421.5 652.5,421.5 Z"/></g>
<g><path style="opacity:1" fill="#860300" d="M 184.5,459.5 C 184.982,466.731 185.648,473.897 186.5,481C 171.463,538.392 178.63,592.559 208,643.5C 208.667,642.167 209.333,642.167 210,643.5C 218.53,658.025 229.197,670.691 242,681.5C 242.333,681.167 242.667,680.833 243,680.5C 254.061,691.151 266.395,698.485 280,702.5C 283.088,704.294 286.254,705.961 289.5,707.5C 290.167,707.167 290.833,706.833 291.5,706.5C 296.833,708.167 302.167,709.833 307.5,711.5C 307.833,710.833 308.167,710.167 308.5,709.5C 313.35,710.202 318.184,711.202 323,712.5C 324.011,712.108 324.511,711.441 324.5,710.5C 334.223,711.708 344.057,711.042 354,708.5C 355.376,708.316 356.209,707.649 356.5,706.5C 375.974,702.928 394.307,696.261 411.5,686.5C 406.614,691.527 400.948,695.694 394.5,699C 395.167,699.333 395.833,699.667 396.5,700C 391.238,702.53 385.905,704.864 380.5,707C 381.167,707.333 381.833,707.667 382.5,708C 366.68,714.756 349.513,719.256 331,721.5C 327.579,721.324 324.079,720.99 320.5,720.5C 320.167,721.167 319.833,721.833 319.5,722.5C 314.6,721.13 309.766,720.13 305,719.5C 301.144,720.337 297.477,719.671 294,717.5C 293.667,717.833 293.333,718.167 293,718.5C 290.227,717.074 287.393,715.74 284.5,714.5C 281.083,714.906 277.917,713.906 275,711.5C 274.667,711.833 274.333,712.167 274,712.5C 270.25,710.041 266.417,707.708 262.5,705.5C 261.914,705.709 261.414,706.043 261,706.5C 256.821,703.743 252.821,700.743 249,697.5C 248.282,698.451 247.449,698.617 246.5,698C 235.702,689.536 225.869,680.036 217,669.5C 216.333,670.833 215.667,670.833 215,669.5C 208.211,660.704 202.211,651.37 197,641.5C 196.333,640.167 195.667,640.167 195,641.5C 192.667,636.833 190.333,632.167 188,627.5C 163.597,571.051 162.43,515.051 184.5,459.5 Z"/></g>
<g><path style="opacity:1" fill="#060607" d="M 365.5,457.5 C 375.902,476.079 387.736,493.746 401,510.5C 409.364,518.53 417.364,526.863 425,535.5C 433.74,546.053 437.907,558.22 437.5,572C 437.025,582.196 436.192,592.363 435,602.5C 428.842,583.359 421.509,564.692 413,546.5C 403.374,534.539 393.374,522.872 383,511.5C 371.66,495.314 365.827,477.314 365.5,457.5 Z"/></g>
<g><path style="opacity:1" fill="#020202" d="M 827.5,480.5 C 837.172,480.334 846.839,480.5 856.5,481C 866.217,482.773 874.384,487.273 881,494.5C 883.037,498.334 882.704,502.001 880,505.5C 876.032,508.902 871.532,511.402 866.5,513C 852.974,516.731 839.641,521.064 826.5,526C 817.167,531.333 807.833,536.667 798.5,542C 794.583,543.473 790.583,544.639 786.5,545.5C 776.653,543.48 772.487,537.48 774,527.5C 783.017,501.642 800.85,485.975 827.5,480.5 Z"/></g>
<g><path style="opacity:1" fill="#7e0300" d="M 189.5,426.5 C 188.453,448.489 188.286,470.489 189,492.5C 189.164,531.978 193.498,570.978 202,609.5C 204.485,619.623 208.152,629.29 213,638.5C 223.427,652.262 235.26,664.762 248.5,676C 280.051,701.392 316.051,711.559 356.5,706.5C 356.209,707.649 355.376,708.316 354,708.5C 344.057,711.042 334.223,711.708 324.5,710.5C 324.511,711.441 324.011,712.108 323,712.5C 318.184,711.202 313.35,710.202 308.5,709.5C 308.167,710.167 307.833,710.833 307.5,711.5C 302.167,709.833 296.833,708.167 291.5,706.5C 290.833,706.833 290.167,707.167 289.5,707.5C 286.254,705.961 283.088,704.294 280,702.5C 266.395,698.485 254.061,691.151 243,680.5C 242.667,680.833 242.333,681.167 242,681.5C 229.197,670.691 218.53,658.025 210,643.5C 209.333,642.167 208.667,642.167 208,643.5C 178.63,592.559 171.463,538.392 186.5,481C 185.648,473.897 184.982,466.731 184.5,459.5C 184.334,453.158 184.5,446.825 185,440.5C 187.616,436.058 189.116,431.392 189.5,426.5 Z"/></g>
<g><path style="opacity:1" fill="#e5e4fa" d="M 601.5,543.5 C 615.193,541.873 628.193,544.04 640.5,550C 648.706,555.146 650.706,562.146 646.5,571C 644.043,572.562 641.376,573.562 638.5,574C 615.511,573.1 592.845,575.266 570.5,580.5C 565.556,580.687 561.389,579.021 558,575.5C 557.294,573.029 557.627,570.695 559,568.5C 565.565,560.291 573.732,554.125 583.5,550C 589.5,547.485 595.5,545.318 601.5,543.5 Z"/></g>
<g><path style="opacity:1" fill="#be0400" d="M 514.5,602.5 C 516.335,603.122 517.502,604.456 518,606.5C 524.076,622.897 530.242,639.23 536.5,655.5C 524.412,653.249 512.745,649.582 501.5,644.5C 501.08,642.647 500.747,640.813 500.5,639C 502.666,633.52 504.333,627.854 505.5,622C 504.706,619.976 505.039,617.976 506.5,616C 506.034,614.701 506.034,613.201 506.5,611.5C 509.195,608.474 511.862,605.474 514.5,602.5 Z"/></g>
<g><path style="opacity:1" fill="#b60400" d="M 543.5,665.5 C 544.434,672.299 546.768,678.632 550.5,684.5C 527.776,683.43 506.11,677.93 485.5,668C 488.974,659.479 492.308,650.812 495.5,642C 495.745,640.089 495.745,638.089 495.5,636C 497.71,629.996 499.376,623.829 500.5,617.5C 502.167,615.167 504.167,613.167 506.5,611.5C 506.034,613.201 506.034,614.701 506.5,616C 505.039,617.976 504.706,619.976 505.5,622C 504.333,627.854 502.666,633.52 500.5,639C 500.747,640.813 501.08,642.647 501.5,644.5C 512.745,649.582 524.412,653.249 536.5,655.5C 530.242,639.23 524.076,622.897 518,606.5C 517.502,604.456 516.335,603.122 514.5,602.5C 515.145,601.188 516.145,600.188 517.5,599.5C 525.975,621.593 534.641,643.593 543.5,665.5 Z"/></g>
<g><path style="opacity:1" fill="#b10400" d="M 500.5,617.5 C 499.376,623.829 497.71,629.996 495.5,636C 495.745,638.089 495.745,640.089 495.5,642C 492.308,650.812 488.974,659.479 485.5,668C 506.11,677.93 527.776,683.43 550.5,684.5C 546.768,678.632 544.434,672.299 543.5,665.5C 550.857,681.885 558.523,698.218 566.5,714.5C 566.807,716.446 566.807,718.113 566.5,719.5C 530.828,717.748 496.828,709.415 464.5,694.5C 465.476,690.245 467.809,686.411 471.5,683C 470.833,682.667 470.167,682.333 469.5,682C 472.415,678.172 475.081,674.172 477.5,670C 478.264,665.448 480.264,661.114 483.5,657C 482.833,656.667 482.167,656.333 481.5,656C 483.885,652.062 485.885,647.896 487.5,643.5C 487.291,642.914 486.957,642.414 486.5,642C 487.833,639.333 489.167,636.667 490.5,634C 490.167,633.667 489.833,633.333 489.5,633C 491.016,631.103 491.683,628.936 491.5,626.5C 494.167,623.167 497.167,620.167 500.5,617.5 Z"/></g>
<g><path style="opacity:1" fill="#ab0400" d="M 491.5,626.5 C 491.683,628.936 491.016,631.103 489.5,633C 489.833,633.333 490.167,633.667 490.5,634C 489.167,636.667 487.833,639.333 486.5,642C 486.957,642.414 487.291,642.914 487.5,643.5C 485.885,647.896 483.885,652.062 481.5,656C 482.167,656.333 482.833,656.667 483.5,657C 480.264,661.114 478.264,665.448 477.5,670C 475.081,674.172 472.415,678.172 469.5,682C 470.167,682.333 470.833,682.667 471.5,683C 467.809,686.411 465.476,690.245 464.5,694.5C 496.828,709.415 530.828,717.748 566.5,719.5C 566.807,718.113 566.807,716.446 566.5,714.5C 571.83,724.492 577.163,734.492 582.5,744.5C 532.881,746.973 485.548,736.973 440.5,714.5C 448.326,705.076 455.993,694.91 463.5,684C 462.833,683.667 462.167,683.333 461.5,683C 463.5,680.667 465.5,678.333 467.5,676C 466.939,674.434 467.606,673.101 469.5,672C 469.167,671.667 468.833,671.333 468.5,671C 471.086,667.164 473.419,663.164 475.5,659C 475.043,658.586 474.709,658.086 474.5,657.5C 479.308,650.062 481.975,642.395 482.5,634.5C 485.474,631.862 488.474,629.195 491.5,626.5 Z"/></g>
<g><path style="opacity:1" fill="#a50400" d="M 482.5,634.5 C 481.975,642.395 479.308,650.062 474.5,657.5C 474.709,658.086 475.043,658.586 475.5,659C 473.419,663.164 471.086,667.164 468.5,671C 468.833,671.333 469.167,671.667 469.5,672C 467.606,673.101 466.939,674.434 467.5,676C 465.5,678.333 463.5,680.667 461.5,683C 462.167,683.333 462.833,683.667 463.5,684C 455.993,694.91 448.326,705.076 440.5,714.5C 485.548,736.973 532.881,746.973 582.5,744.5C 587.748,752.66 592.748,760.993 597.5,769.5C 597.414,770.496 597.748,771.329 598.5,772C 538.478,775.996 481.145,765.329 426.5,740C 420.843,737.507 415.51,734.507 410.5,731C 412.087,730.138 413.754,729.471 415.5,729C 414.833,728.667 414.167,728.333 413.5,728C 419.261,725.062 424.261,721.229 428.5,716.5C 435.979,707.795 443.646,698.628 451.5,689C 451.167,688.667 450.833,688.333 450.5,688C 453.5,684.333 456.5,680.667 459.5,677C 459.043,676.586 458.709,676.086 458.5,675.5C 460.894,672.281 463.061,668.947 465,665.5C 468.458,657.629 471.624,649.629 474.5,641.5C 477.141,639.196 479.808,636.862 482.5,634.5 Z"/></g>
<g><path style="opacity:1" fill="#050506" d="M 864.5,638.5 C 870.509,638.334 876.509,638.501 882.5,639C 886.538,639.899 890.205,641.566 893.5,644C 905.598,653.563 915.598,664.896 923.5,678C 911.131,673.424 898.797,668.424 886.5,663C 880.565,660.854 874.565,659.021 868.5,657.5C 867.167,657.667 865.833,657.833 864.5,658C 855.724,663.721 846.391,668.388 836.5,672C 828.616,673.232 821.616,671.232 815.5,666C 811.465,662.3 807.798,658.3 804.5,654C 810.814,653.971 817.148,654.138 823.5,654.5C 828.899,654.554 834.233,654.054 839.5,653C 847.896,648.14 856.23,643.307 864.5,638.5 Z"/></g>
<g><path style="opacity:1" fill="#9f0400" d="M 474.5,641.5 C 471.624,649.629 468.458,657.629 465,665.5C 463.061,668.947 460.894,672.281 458.5,675.5C 458.709,676.086 459.043,676.586 459.5,677C 456.5,680.667 453.5,684.333 450.5,688C 450.833,688.333 451.167,688.667 451.5,689C 443.646,698.628 435.979,707.795 428.5,716.5C 424.261,721.229 419.261,725.062 413.5,728C 414.167,728.333 414.833,728.667 415.5,729C 413.754,729.471 412.087,730.138 410.5,731C 415.51,734.507 420.843,737.507 426.5,740C 481.145,765.329 538.478,775.996 598.5,772C 597.748,771.329 597.414,770.496 597.5,769.5C 604.067,778.287 610.4,787.287 616.5,796.5C 530.232,806.607 449.565,789.107 374.5,744C 374.167,743.667 373.833,743.333 373.5,743C 394.296,733.228 412.963,720.228 429.5,704C 432.141,700.327 435.474,696.66 439.5,693C 439.167,692.667 438.833,692.333 438.5,692C 439.579,691.044 440.745,690.211 442,689.5C 445.608,682.695 449.941,676.361 455,670.5C 455.617,669.551 455.451,668.718 454.5,668C 458.191,664.378 460.524,660.378 461.5,656C 463.607,654.736 464.607,652.903 464.5,650.5C 467.792,647.51 471.126,644.51 474.5,641.5 Z"/></g>
<g><path style="opacity:1" fill="#980400" d="M 464.5,650.5 C 464.607,652.903 463.607,654.736 461.5,656C 460.524,660.378 458.191,664.378 454.5,668C 455.451,668.718 455.617,669.551 455,670.5C 449.941,676.361 445.608,682.695 442,689.5C 440.745,690.211 439.579,691.044 438.5,692C 438.833,692.333 439.167,692.667 439.5,693C 435.474,696.66 432.141,700.327 429.5,704C 412.963,720.228 394.296,733.228 373.5,743C 373.833,743.333 374.167,743.667 374.5,744C 449.565,789.107 530.232,806.607 616.5,796.5C 620.853,801.527 624.853,806.86 628.5,812.5C 627.97,814.942 628.637,817.276 630.5,819.5C 629.653,821.061 629.986,822.561 631.5,824C 630.786,825.343 631.12,826.676 632.5,828C 531.813,840.328 437.813,820.662 350.5,769C 336.971,760.402 323.971,751.069 311.5,741C 317.025,740.936 322.525,741.436 328,742.5C 329.762,742.056 329.595,741.556 327.5,741C 334.808,741.104 342.142,740.437 349.5,739C 349.167,738.667 348.833,738.333 348.5,738C 351.682,737.593 354.849,737.093 358,736.5C 366.814,733.824 375.314,730.657 383.5,727C 383.167,726.667 382.833,726.333 382.5,726C 390.354,721.485 398.354,717.152 406.5,713C 405.167,712.333 405.167,711.667 406.5,711C 408.67,709.414 411.004,708.08 413.5,707C 416.195,702.664 420.195,698.998 425.5,696C 425.167,695.667 424.833,695.333 424.5,695C 428.167,691.5 431.833,688 435.5,684.5C 440.759,676.976 445.759,669.309 450.5,661.5C 454.568,657.101 459.235,653.435 464.5,650.5 Z"/></g>
<g><path style="opacity:1" fill="#920400" d="M 450.5,661.5 C 445.759,669.309 440.759,676.976 435.5,684.5C 431.833,688 428.167,691.5 424.5,695C 424.833,695.333 425.167,695.667 425.5,696C 420.195,698.998 416.195,702.664 413.5,707C 411.004,708.08 408.67,709.414 406.5,711C 405.167,711.667 405.167,712.333 406.5,713C 398.354,717.152 390.354,721.485 382.5,726C 382.833,726.333 383.167,726.667 383.5,727C 375.314,730.657 366.814,733.824 358,736.5C 354.849,737.093 351.682,737.593 348.5,738C 348.833,738.333 349.167,738.667 349.5,739C 342.142,740.437 334.808,741.104 327.5,741C 329.595,741.556 329.762,742.056 328,742.5C 322.525,741.436 317.025,740.936 311.5,741C 323.971,751.069 336.971,760.402 350.5,769C 437.813,820.662 531.813,840.328 632.5,828C 631.12,826.676 630.786,825.343 631.5,824C 629.986,822.561 629.653,821.061 630.5,819.5C 628.637,817.276 627.97,814.942 628.5,812.5C 632.868,816.867 636.868,821.533 640.5,826.5C 640.389,827.117 640.056,827.617 639.5,828C 641.422,829.46 642.089,831.127 641.5,833C 642.65,835.462 643.983,837.796 645.5,840C 644.549,840.718 644.383,841.551 645,842.5C 646.976,843.543 647.476,844.877 646.5,846.5C 647.193,848.742 648.193,851.075 649.5,853.5C 563.338,865.938 479.672,856.438 398.5,825C 332.532,799.007 277.365,758.507 233,703.5C 231.398,701.631 230.398,699.631 230,697.5C 233.261,700.216 236.428,703.049 239.5,706C 240.449,706.617 241.282,706.451 242,705.5C 245.883,709.05 250.049,712.217 254.5,715C 255.449,715.617 256.282,715.451 257,714.5C 260.082,716.625 263.249,718.625 266.5,720.5C 267.086,720.291 267.586,719.957 268,719.5C 271.667,721.5 275.333,723.5 279,725.5C 279.333,725.167 279.667,724.833 280,724.5C 282.878,725.689 285.712,727.022 288.5,728.5C 292.167,728.5 295.833,728.5 299.5,728.5C 303.872,730.007 308.372,731.007 313,731.5C 323.779,731.571 334.613,731.071 345.5,730C 345.167,729.667 344.833,729.333 344.5,729C 349.167,728.333 353.833,727.667 358.5,727C 357.833,726.667 357.167,726.333 356.5,726C 361.017,725.737 365.351,724.737 369.5,723C 369.167,722.667 368.833,722.333 368.5,722C 372.242,721.097 375.909,719.93 379.5,718.5C 384.217,715.558 389.217,713.058 394.5,711C 394.167,710.667 393.833,710.333 393.5,710C 398.167,707.333 402.833,704.667 407.5,702C 406.167,701.333 406.167,700.667 407.5,700C 412.107,697.697 415.441,694.697 417.5,691C 424.415,685.921 430.082,679.754 434.5,672.5C 439.477,668.342 444.811,664.676 450.5,661.5 Z"/></g>
<g><path style="opacity:1" fill="#4b0200" d="M 978.5,678.5 C 979.167,685.5 979.833,692.5 980.5,699.5C 980.5,699.833 980.5,700.167 980.5,700.5C 979.883,700.611 979.383,700.944 979,701.5C 978.5,693.841 978.334,686.174 978.5,678.5 Z"/></g>
<g><path style="opacity:0.769" fill="#0e0000" d="M 191.5,326.5 C 191.833,326.5 192.167,326.5 192.5,326.5C 191.5,327.833 190.5,329.167 189.5,330.5C 171.317,353.508 156.15,378.508 144,405.5C 106.209,499.22 111.876,590.22 161,678.5C 197.645,738.812 246.478,786.645 307.5,822C 426.91,889.012 553.91,909.512 688.5,883.5C 691.127,882.908 693.794,882.575 696.5,882.5C 693.039,883.866 689.373,884.866 685.5,885.5C 572.122,906.736 462.455,894.569 356.5,849C 285.921,817.75 227.088,771.583 180,710.5C 111.318,613.355 99.651,509.688 145,399.5C 157.529,373.07 173.029,348.737 191.5,326.5 Z"/></g>
<g><path style="opacity:1" fill="#7c0300" d="M 670.5,854.5 C 683.561,864.369 697.894,872.203 713.5,878C 707.668,879.373 702.002,880.873 696.5,882.5C 693.794,882.575 691.127,882.908 688.5,883.5C 686.417,881.196 684.417,878.696 682.5,876C 682.833,875.667 683.167,875.333 683.5,875C 680.728,873.14 678.395,870.806 676.5,868C 676.833,867.667 677.167,867.333 677.5,867C 675.606,865.899 674.939,864.566 675.5,863C 673.5,860.667 671.5,858.333 669.5,856C 670.056,855.617 670.389,855.117 670.5,854.5 Z"/></g>
</svg>
