<svg xmlns="http://www.w3.org/2000/svg" width="512" height="512" viewBox="0 0 512 512" version="1.1">
	<path d="M 243.500 36.593 C 237.450 40.168, 220.125 50.109, 205 58.685 C 114.618 109.930, 58.971 142.079, 42.254 152.708 C 41.569 153.144, 41.350 154.029, 41.767 154.675 C 43.105 156.747, 195.846 158.384, 305.500 157.500 C 433.942 156.465, 467.232 155.814, 467.726 154.327 C 468.446 152.157, 461.027 147.656, 367.500 93.519 C 341.100 78.238, 305.731 57.695, 288.903 47.868 C 272.075 38.040, 257.450 30.021, 256.403 30.046 C 255.356 30.072, 249.550 33.018, 243.500 36.593 M 250 52.092 C 242.912 56.760, 235.517 61.131, 204.500 78.986 C 188.550 88.167, 160.425 104.357, 142 114.964 C 102.612 137.638, 90.259 145.424, 91.983 146.489 C 92.653 146.904, 97.318 146.920, 102.350 146.527 C 111.116 145.841, 111.856 145.591, 120 140.561 C 124.675 137.674, 150.100 122.680, 176.500 107.241 C 202.900 91.802, 231.237 75.081, 239.472 70.085 C 247.706 65.088, 255.008 61, 255.699 61 C 256.389 61, 266.302 66.775, 277.727 73.834 C 296.348 85.338, 312.281 94.562, 376 130.725 C 386.175 136.500, 395.650 142.299, 397.055 143.612 C 399.381 145.786, 400.455 145.997, 409.055 145.968 L 418.500 145.937 415.701 143.475 C 412.481 140.642, 394.147 129.722, 344 100.771 C 299.160 74.884, 277.928 62.326, 266.409 54.878 C 261.409 51.645, 256.684 49.029, 255.909 49.064 C 255.134 49.099, 252.475 50.462, 250 52.092 M 251.559 77.672 C 243.824 81.859, 146.910 138.563, 142.752 141.335 C 140.140 143.076, 138.003 144.838, 138.002 145.250 C 138.001 145.662, 190.875 146, 255.500 146 C 325.453 146, 373 145.632, 373 145.090 C 373 143.749, 363.523 137.978, 330.814 119.400 C 314.691 110.243, 291.517 96.732, 279.316 89.376 C 267.114 82.019, 256.539 76.018, 255.816 76.040 C 255.092 76.062, 253.177 76.796, 251.559 77.672 M 103.750 162.668 C 55.962 163.005, 54 163.092, 54 164.887 C 54 167.195, 55.470 168.408, 60.048 169.881 C 63.414 170.963, 70.104 177.072, 74.837 183.385 C 76.672 185.833, 77 187.604, 77 195.076 C 77 200.546, 76.572 204.147, 75.869 204.581 C 75.102 205.055, 74.944 207.483, 75.376 212.140 L 76.014 219 72.472 219 L 68.930 219 69.215 229.250 L 69.500 239.500 73.761 241.547 C 81.628 245.325, 81.071 238.408, 79.842 317.008 L 78.741 387.500 76.120 392.910 C 74.051 397.183, 72.720 398.631, 69.787 399.797 L 66.074 401.274 65.787 409.887 L 65.500 418.500 56.829 419 C 52.060 419.275, 47.879 419.781, 47.538 420.124 C 47.197 420.468, 48.061 422.108, 49.459 423.769 C 51.955 426.735, 52 427.080, 52 443.239 C 52 458.420, 51.846 459.830, 50 461.500 C 44.964 466.058, 43.723 465.971, 117.750 466.243 L 187.500 466.500 187.813 469.751 C 188.071 472.423, 187.693 473.166, 185.686 473.929 C 183.754 474.664, 181 479.201, 181 481.649 C 181 481.842, 214.740 482, 255.979 482 L 330.957 482 329.804 479.250 C 329.169 477.738, 327.336 475.352, 325.730 473.948 C 323.672 472.150, 322.911 470.672, 323.155 468.948 L 323.500 466.500 393.825 466 L 464.150 465.500 461.575 461.706 C 459.074 458.021, 459 457.450, 459 441.956 C 459 427.333, 459.167 425.833, 461 424 C 464.966 420.034, 463.726 419, 455 419 L 447 419 447 410.668 L 447 402.335 443.250 399.918 C 441.012 398.475, 438.624 395.686, 437.327 393 C 435.304 388.809, 435.078 386.100, 434.032 353.500 C 433.415 334.250, 432.489 307.025, 431.974 293 C 431.460 278.975, 431.030 262.188, 431.020 255.695 L 431 243.889 435.940 241.836 C 441.708 239.439, 443 236.892, 443 227.922 C 443 221.662, 441.444 219, 437.786 219 C 435.864 219, 435.757 218.587, 436.299 213.250 C 436.707 209.228, 436.460 206.749, 435.477 205 C 434.645 203.521, 434.056 199.575, 434.035 195.340 C 434.002 188.496, 434.172 187.965, 437.884 183.340 C 443.448 176.407, 449.987 170.511, 453.750 169.033 C 456.148 168.092, 457 167.134, 457 165.379 L 457 163 403.250 162.999 C 373.688 162.999, 305.400 162.846, 251.500 162.658 C 197.600 162.471, 131.113 162.475, 103.750 162.668 M 79.601 171.837 C 79.316 172.297, 79.765 173.647, 80.598 174.837 L 82.113 177 255.402 177 C 422.011 177, 428.754 176.930, 430.345 175.171 C 431.255 174.165, 432 172.815, 432 172.171 C 432 170.775, 80.463 170.442, 79.601 171.837 M 83.668 189.750 C 81.433 194.195, 80.953 198.553, 82.469 200.627 C 83.797 202.443, 88.886 202.508, 249.298 202.759 C 340.301 202.901, 417.850 202.676, 421.629 202.259 C 429.784 201.358, 430.412 200.153, 426.937 192.074 L 424.754 187 254.903 187 L 85.051 187 83.668 189.750 M 81.502 209.997 C 81.161 210.549, 81.160 211.450, 81.500 212 C 81.908 212.660, 141.201 213, 256.132 213 C 421.322 213, 430.130 212.911, 429.810 211.250 C 429.490 209.593, 420.292 209.487, 255.797 209.247 C 140.495 209.079, 81.913 209.331, 81.502 209.997 M 79.465 223.952 C 76.602 225.112, 75.323 226.985, 74.792 230.794 C 74.143 235.452, 75.494 235.679, 79.375 231.564 L 82.736 228 93.618 228.015 C 99.603 228.024, 104.972 228.361, 105.548 228.765 C 106.125 229.169, 107.618 230.963, 108.866 232.750 C 111.203 236.095, 113.507 236.949, 114.263 234.750 C 114.966 232.704, 113.204 227.846, 110.850 225.340 C 108.748 223.103, 108.056 223.003, 95.076 223.063 C 87.609 223.098, 80.584 223.498, 79.465 223.952 M 177.033 224.461 C 176.366 225.264, 175.576 227.739, 175.278 229.961 C 174.605 234.980, 176.368 235.353, 180.187 231 C 182.434 228.439, 183.601 227.972, 188.160 227.808 C 193.138 227.629, 203.215 227.679, 207.271 227.902 C 208.244 227.956, 210.469 230.025, 212.213 232.500 C 215.334 236.928, 217.267 237.994, 218.515 235.976 C 219.591 234.234, 217.954 229.099, 215.326 225.976 L 212.822 223 195.534 223 C 181.592 223, 178.010 223.283, 177.033 224.461 M 298.376 223.765 C 296.280 225.135, 293.007 231.486, 293.004 234.191 C 292.997 238.892, 295.072 238.572, 299.741 233.152 L 304.180 228 316.506 228 L 328.832 228 332.060 232.076 C 335.685 236.653, 337.231 235.959, 335.961 230.325 C 334.371 223.278, 333.591 222.998, 315.595 223.015 C 306.743 223.024, 298.994 223.361, 298.376 223.765 M 399.960 225.040 C 397.678 227.322, 396 231.146, 396 234.065 C 396 237.311, 399.613 236.362, 402.008 232.487 C 405.041 227.579, 406.628 227, 417.033 227 C 425.996 227, 426.261 227.068, 429.099 230.106 C 430.694 231.814, 432 233.614, 432 234.106 C 432 234.598, 432.675 235, 433.500 235 C 434.608 235, 435 233.841, 435 230.571 C 435 223.357, 434.148 223, 416.929 223 C 403.236 223, 401.831 223.169, 399.960 225.040 M 124.306 228.790 C 123.649 229.208, 122.664 231.540, 122.117 233.974 C 121.226 237.941, 118.037 241.913, 115.691 241.978 C 115.246 241.990, 115.160 242.450, 115.500 243 C 116.265 244.238, 177 244.387, 177 243.152 C 177 242.685, 175.200 241.596, 173 240.732 C 169.080 239.192, 169 239.061, 169 234.187 C 169 230.575, 168.567 229.048, 167.418 228.607 C 165.118 227.724, 125.719 227.891, 124.306 228.790 M 227.750 228.689 C 226.446 229.030, 226 230.181, 226 233.205 C 226 236.564, 225.384 237.845, 222.429 240.632 L 218.858 244 255.679 243.989 L 292.500 243.978 289.344 241.490 C 286.847 239.522, 286.047 237.978, 285.513 234.097 C 284.979 230.214, 284.386 229.070, 282.669 228.609 C 280.154 227.935, 230.360 228.007, 227.750 228.689 M 344 232.046 C 344 237.504, 342.707 239.612, 338.508 240.997 C 336.578 241.634, 335 242.570, 335 243.078 C 335 244.217, 394.673 244.337, 395.377 243.199 C 395.649 242.758, 394.353 241.186, 392.496 239.704 C 390.071 237.770, 388.883 235.811, 388.279 232.755 L 387.438 228.500 365.719 228.230 L 344 227.961 344 232.046 M 89.714 233.620 C 88.115 235.218, 89.250 235.765, 94.020 235.693 C 97.074 235.647, 98.903 235.203, 98.692 234.559 C 98.291 233.338, 90.781 232.552, 89.714 233.620 M 188 234 C 188 234.550, 189.912 235.005, 192.250 235.011 C 194.588 235.017, 198.188 235.301, 200.250 235.642 C 203.304 236.147, 204 235.959, 204 234.631 C 204 233.259, 202.730 233, 196 233 C 191.333 233, 188 233.417, 188 234 M 307.706 233.627 C 305.887 235.446, 307.610 236, 315.083 236 C 321.104 236, 323.061 235.681, 322.753 234.750 C 322.302 233.386, 308.944 232.389, 307.706 233.627 M 410.500 234 C 410.840 234.550, 413.818 235, 417.118 235 C 420.863 235, 422.886 234.624, 422.500 234 C 422.160 233.450, 419.182 233, 415.882 233 C 412.137 233, 410.114 233.376, 410.500 234 M 91.660 263.662 C 91.297 276.125, 91 308.698, 91 336.045 L 91 385.767 93.250 386.370 C 94.487 386.701, 96.577 386.979, 97.893 386.986 L 100.285 387 99.633 343.750 C 99.274 319.962, 98.911 287.675, 98.826 272 C 98.740 256.325, 98.471 242.938, 98.228 242.250 C 97.985 241.563, 96.556 241, 95.053 241 L 92.319 241 91.660 263.662 M 190.531 247.250 C 190.186 250.688, 190.038 283.425, 190.202 320 L 190.500 386.500 198.413 386.795 L 206.327 387.090 205.663 346.381 C 205.299 323.991, 205 292.021, 205 275.336 C 205 246.333, 204.912 244.912, 203 243 C 201.542 241.542, 199.667 241, 196.080 241 L 191.159 241 190.531 247.250 M 309.213 241.822 C 308.187 242.493, 307.883 257.235, 307.713 314.582 L 307.500 386.500 314.973 386.500 L 322.447 386.500 322.087 346 C 321.889 323.725, 321.451 291.100, 321.114 273.500 L 320.500 241.500 315.500 241.240 C 312.750 241.097, 309.921 241.359, 309.213 241.822 M 412.243 313.750 L 412.500 386.500 417.264 386.436 C 419.884 386.401, 422.470 385.930, 423.010 385.390 C 423.654 384.746, 423.655 368.209, 423.014 337.453 C 422.475 311.629, 422.027 279.363, 422.017 265.750 L 422 241 416.993 241 L 411.987 241 412.243 313.750 M 111.649 254.714 L 108.798 255.152 109.506 281.326 C 109.895 295.722, 110.528 326.850, 110.912 350.500 C 111.679 397.681, 111.726 398.023, 117.691 400.515 C 120.988 401.893, 121 401.924, 121 408.867 C 121 419.836, 119.178 419, 143.088 419 L 163.962 419 164.624 416.363 C 164.988 414.912, 164.884 412.100, 164.393 410.113 L 163.500 406.500 146.208 406 L 128.915 405.500 128.653 367.500 C 128.423 334.024, 128.190 329.119, 126.696 326.300 C 124.572 322.292, 124.532 320, 126.585 320 C 127.917 320, 128.090 318.999, 127.669 313.750 C 127.393 310.313, 127.017 306.375, 126.834 305 C 126.556 302.916, 126.958 302.447, 129.250 302.184 C 130.952 301.988, 132.963 300.604, 134.527 298.553 C 136.073 296.527, 138.288 294.992, 140.228 294.604 L 143.402 293.970 141.144 292.388 C 138.333 290.419, 138.645 286.875, 141.750 285.513 C 143.120 284.912, 144 283.650, 144 282.286 C 144 281.008, 145.060 279.352, 146.468 278.429 C 150.014 276.106, 154.207 277.657, 155.438 281.748 C 155.954 283.462, 157.191 285.078, 158.188 285.339 C 160.151 285.852, 160.752 290.417, 159 291.500 C 157.352 292.519, 157.854 293.612, 160.529 294.831 C 161.920 295.465, 164.008 297.595, 165.171 299.565 C 166.920 302.529, 167.697 303.042, 169.688 302.542 C 173.355 301.622, 174.028 302.688, 172.335 306.740 C 171.206 309.443, 170.968 312.056, 171.451 316.468 C 171.814 319.786, 172.058 323.625, 171.993 325 C 171.928 326.375, 171.565 342.109, 171.187 359.964 L 170.500 392.427 167.199 393.373 C 164.164 394.242, 163.923 394.608, 164.199 397.909 C 164.481 401.276, 164.735 401.519, 168.266 401.811 C 173.835 402.272, 177.623 398.189, 178.371 390.920 C 178.678 387.939, 179.121 356.137, 179.356 320.250 L 179.784 255 177.642 254.982 C 176.464 254.972, 161.775 254.810, 145 254.620 C 128.225 254.431, 113.217 254.473, 111.649 254.714 M 220.534 254.945 C 219.807 256.121, 219.160 286.255, 218.525 348.420 L 218.035 396.340 222.018 400.016 C 225.870 403.572, 226 403.904, 226 410.146 C 226 413.833, 226.515 417.115, 227.200 417.800 C 228.076 418.676, 235.884 419, 256.078 419 C 279.674 419, 283.942 418.775, 285.022 417.473 C 285.926 416.384, 286.112 413.854, 285.672 408.646 L 285.055 401.344 288.527 399.688 C 291.210 398.409, 292.018 397.403, 292.078 395.266 C 292.428 382.844, 291.759 257.996, 291.333 256.250 L 290.783 254 255.951 254 C 235.152 254, 220.883 254.381, 220.534 254.945 M 336.733 254.805 L 331.965 255.111 332.480 319.907 C 332.776 357.058, 333.428 386.982, 334.008 390.043 C 335.168 396.158, 337.335 400, 339.626 400 C 341.042 400, 341.141 397.226, 340.581 373.250 C 339.381 321.878, 338.863 308.769, 337.935 306.328 C 336.467 302.468, 336.757 302.045, 340.707 302.280 C 343.890 302.469, 344.611 302.098, 345.806 299.657 C 346.629 297.977, 348.889 296.056, 351.330 294.964 C 354.561 293.517, 355.084 292.969, 353.730 292.450 C 352.645 292.034, 352 290.714, 352 288.912 C 352 286.680, 352.559 285.898, 354.500 285.411 C 356.234 284.975, 357 284.098, 357 282.547 C 357 279.955, 359.874 277, 362.394 277 C 365.759 277, 368 278.985, 368 281.966 C 368 284.207, 368.508 284.933, 370.250 285.180 C 372.750 285.536, 373.928 289.472, 372.085 291.315 C 370.552 292.848, 370.739 294, 372.522 294 C 373.360 294, 376.038 295.837, 378.474 298.083 C 381.777 301.127, 383.424 302, 384.952 301.515 C 387.380 300.745, 387.401 300.970, 385.927 311.573 C 385.128 317.312, 385.147 319.473, 385.999 320 C 386.830 320.513, 387.116 330.585, 387.038 356.564 C 386.943 387.779, 386.724 392.647, 385.345 394.171 C 384.145 395.497, 383.924 397.007, 384.432 400.397 L 385.103 404.873 367.133 405.186 C 357.249 405.359, 348.862 405.800, 348.497 406.167 C 347.188 407.482, 346.797 414.752, 347.923 416.856 C 349.038 418.940, 349.638 419, 369.413 419 C 384.841 419, 390.015 418.687, 390.830 417.705 C 391.421 416.993, 392.038 413.083, 392.202 409.016 C 392.499 401.647, 392.511 401.618, 395.653 400.807 C 397.946 400.215, 399.106 399.134, 399.903 396.847 C 401.166 393.226, 401.504 255.008, 400.250 254.988 C 382.366 254.704, 340.205 254.583, 336.733 254.805 M 212.314 308.144 C 212.667 337.373, 213.190 361.523, 213.477 361.811 C 213.765 362.098, 214.338 361.993, 214.750 361.577 C 215.642 360.676, 215.482 261.058, 214.583 257.475 C 214.241 256.114, 213.447 255, 212.818 255 C 211.966 255, 211.837 268.549, 212.314 308.144 M 298 274.337 C 298 310.637, 299.322 362.078, 300.232 361.168 C 301.384 360.016, 300.014 256, 298.847 256 C 298.381 256, 298 264.251, 298 274.337 M 250.571 278.571 C 249.707 279.436, 249 281.204, 249 282.502 C 249 284.187, 248.357 284.952, 246.750 285.180 C 243.565 285.633, 243.117 290.268, 246.059 292.329 C 248.197 293.826, 248.168 293.870, 244.202 295.058 C 241.266 295.937, 239.674 297.194, 238.336 299.685 C 236.764 302.614, 236.041 303.066, 233.304 302.832 C 229.015 302.466, 228.609 303.129, 230.441 307.514 C 232.482 312.398, 232.515 319.865, 230.500 320.638 C 228.531 321.394, 228.605 323.377, 230.750 327.300 C 232.296 330.127, 232.562 334.773, 233.032 367.198 C 233.324 387.383, 233.776 404.109, 234.035 404.369 C 234.867 405.200, 275.853 405.480, 276.673 404.660 C 277.107 404.226, 276.683 402.513, 275.731 400.854 C 273.445 396.871, 273.547 395.432, 276.250 393.533 L 278.500 391.952 278.500 361.226 C 278.500 333.572, 278.675 330.253, 280.250 328.027 C 282.555 324.771, 282.501 321.364, 280.134 320.745 C 278.532 320.326, 278.331 319.499, 278.707 314.879 C 278.949 311.920, 279.607 308.290, 280.169 306.810 C 281.353 303.700, 280.587 301.838, 278.460 302.654 C 276.491 303.409, 272.179 300.487, 270.802 297.464 C 270.071 295.859, 268.556 294.820, 266.347 294.405 C 263.006 293.779, 262.109 292.669, 264 291.500 C 265.860 290.351, 265.135 285.848, 263 285.290 C 261.728 284.957, 261 283.926, 261 282.455 C 261 279.315, 258.453 277, 255 277 C 253.429 277, 251.436 277.707, 250.571 278.571 M 161.520 313.938 C 160.748 316.368, 161.568 318, 163.559 318 C 165.412 318, 165.429 314.601, 163.584 313.070 C 162.454 312.132, 162.037 312.307, 161.520 313.938 M 238.636 313.506 C 237.955 315.281, 238.845 318, 240.107 318 C 241.272 318, 241.270 313.285, 240.105 312.565 C 239.612 312.260, 238.952 312.684, 238.636 313.506 M 346.032 314.250 C 346.014 315.762, 346.423 317, 346.941 317 C 348.684 317, 348.946 315.308, 347.500 313.397 C 346.139 311.600, 346.062 311.644, 346.032 314.250 M 269 315 C 269 316.506, 269.522 317.046, 270.750 316.810 C 271.712 316.624, 272.500 315.810, 272.500 315 C 272.500 314.190, 271.712 313.376, 270.750 313.190 C 269.522 312.954, 269 313.494, 269 315 M 134 315.500 C 134 316.417, 134.484 317.005, 135.075 316.808 C 135.666 316.611, 136.150 316.022, 136.150 315.500 C 136.150 314.978, 135.666 314.389, 135.075 314.192 C 134.484 313.995, 134 314.583, 134 315.500 M 376.229 315.188 C 376.847 317.042, 379 317.349, 379 315.583 C 379 314.712, 378.288 314, 377.417 314 C 376.546 314, 376.011 314.534, 376.229 315.188 M 239.015 352.250 C 239.006 366.760, 239.362 375, 240 375 C 241.321 375, 241.321 333.044, 240 331 C 239.358 330.007, 239.025 337.192, 239.015 352.250 M 269.607 331.582 C 268.571 334.280, 268.920 360.833, 270 361.500 C 270.651 361.902, 271 356.510, 271 346.059 C 271 337.227, 270.823 330, 270.607 330 C 270.391 330, 269.941 330.712, 269.607 331.582 M 346.005 343.550 C 346.012 361.415, 347.043 377, 348.220 377 C 349.704 377, 348.766 332.362, 347.250 330.848 C 346.250 329.850, 346.001 332.391, 346.005 343.550 M 162.309 332.250 C 161.864 332.938, 161.345 339.913, 161.156 347.750 C 160.854 360.266, 161.006 362, 162.406 362 C 163.796 362, 164 360.016, 164 346.500 C 164 337.975, 163.802 331, 163.559 331 C 163.316 331, 162.754 331.563, 162.309 332.250 M 376.625 337.125 C 375.601 342.247, 375.892 360, 377 360 C 377.615 360, 378 355, 378 347 C 378 339.850, 377.831 334, 377.625 334 C 377.419 334, 376.969 335.406, 376.625 337.125 M 161 375 C 161 378.778, 161.367 380, 162.500 380 C 163.633 380, 164 378.778, 164 375 C 164 371.222, 163.633 370, 162.500 370 C 161.367 370, 161 371.222, 161 375 M 269 375.417 C 269 379.797, 269.335 381, 270.552 381 C 271.794 381, 272.044 379.966, 271.802 375.829 C 271.369 368.422, 269 368.073, 269 375.417 M 376 375 C 376 378.778, 376.367 380, 377.500 380 C 378.633 380, 379 378.778, 379 375 C 379 371.222, 378.633 370, 377.500 370 C 376.367 370, 376 371.222, 376 375 M 81.431 394.112 C 80.086 396.287, 83.638 397.063, 93.669 396.783 C 103.842 396.500, 106.733 395.708, 103.971 393.961 C 101.837 392.611, 82.277 392.742, 81.431 394.112 M 184.189 394.750 C 184.482 396.280, 186.018 396.536, 196.429 396.783 C 203.959 396.962, 208.729 396.671, 209.408 395.992 C 211.510 393.890, 207.545 393.031, 195.677 393.015 C 184.951 393.001, 183.884 393.162, 184.189 394.750 M 302.122 393.904 C 298.637 396.111, 302.526 397, 315.666 397 C 327.609 397, 329.142 396.813, 328.607 395.418 C 328.273 394.548, 328 393.648, 328 393.418 C 328 392.591, 303.468 393.051, 302.122 393.904 M 409 394.015 C 406.082 395.931, 410.190 396.969, 420.750 396.985 C 428.852 396.997, 431 396.708, 431 395.607 C 431 394.841, 430.288 393.941, 429.418 393.607 C 426.848 392.621, 410.631 392.945, 409 394.015 M 73.750 407.080 C 71.766 408.236, 71.358 413.932, 73.035 417.066 C 74.002 418.873, 75.306 419, 92.835 419 C 106.097 419, 111.952 418.648, 112.800 417.800 C 113.460 417.140, 114 414.681, 114 412.335 C 114 409.142, 113.514 407.810, 112.066 407.035 C 109.534 405.680, 76.086 405.720, 73.750 407.080 M 176.755 406.735 C 172.704 407.054, 171.921 407.466, 171.397 409.555 C 170.659 412.493, 171.707 417.193, 173.329 418.225 C 175.398 419.541, 215.451 419.149, 216.800 417.800 C 218.668 415.932, 218.272 409.557, 216.171 407.655 C 214.607 406.240, 211.966 406.026, 197.921 406.180 C 188.890 406.279, 179.365 406.529, 176.755 406.735 M 293.750 407.080 C 291.766 408.236, 291.358 413.932, 293.035 417.066 C 294.010 418.887, 295.340 419, 315.835 419 C 331.430 419, 337.940 418.660, 338.800 417.800 C 339.460 417.140, 340 414.681, 340 412.335 C 340 409.142, 339.514 407.810, 338.066 407.035 C 335.511 405.668, 296.106 405.708, 293.750 407.080 M 401.797 406.680 C 398.247 407.615, 398.411 416.079, 402.016 418.008 C 404.259 419.209, 436.953 419.316, 438.826 418.129 C 439.555 417.666, 440.394 415.485, 440.689 413.280 C 441.584 406.610, 439.759 405.978, 420.027 406.116 C 410.937 406.180, 402.734 406.434, 401.797 406.680 M 120 426.711 C 53.330 427.032, 57 426.659, 57 433.120 C 57 439.265, 54.010 439, 123.371 439 C 171.216 439, 186.892 438.708, 187.800 437.800 C 189.369 436.231, 189.339 430.838, 187.750 428.705 C 187.063 427.782, 185.150 426.890, 183.500 426.723 C 181.850 426.557, 153.275 426.551, 120 426.711 M 197.196 426.827 C 193.277 427.382, 191.937 435.911, 195.404 438.235 C 196.007 438.639, 222.905 438.976, 255.179 438.985 C 307.203 438.998, 314.035 438.822, 315.429 437.429 C 317.337 435.520, 317.474 431.030, 315.697 428.600 C 314.475 426.929, 310.796 426.808, 256.947 426.659 C 225.351 426.571, 198.463 426.647, 197.196 426.827 M 363.037 427 L 322.574 427.500 321.651 430.719 C 320.941 433.196, 321.110 434.520, 322.387 436.469 L 324.046 439 387.500 439 L 450.954 439 452.565 436.541 C 454.480 433.618, 453.713 428.441, 451.169 427.111 C 449.418 426.196, 430.096 426.171, 363.037 427 M 115.500 446.930 L 58.500 447.500 57.578 451.231 C 56.820 454.299, 56.981 455.322, 58.483 456.981 C 60.279 458.966, 61.386 459, 123.596 459 C 166.793 459, 187.088 458.666, 187.532 457.948 C 188.386 456.566, 188.500 448.167, 187.676 447.343 C 186.700 446.367, 177.296 446.313, 115.500 446.930 M 196.250 446.947 C 193.256 448.263, 193.041 454.416, 195.934 455.965 C 198.577 457.379, 314.634 457.401, 315.508 455.987 C 316.522 454.347, 316.391 448.991, 315.311 447.911 C 313.938 446.538, 199.292 445.609, 196.250 446.947 M 322.667 447.667 C 321.833 448.500, 321.792 455.294, 322.607 457.418 C 323.152 458.838, 329.794 459, 387.407 459 C 436.002 459, 451.892 458.708, 452.800 457.800 C 453.460 457.140, 454 454.980, 454 453 C 454 451.020, 453.460 448.860, 452.800 448.200 C 451.892 447.292, 436.015 447, 387.467 447 C 352.193 447, 323.033 447.300, 322.667 447.667 M 194.667 464.667 C 194.300 465.033, 194 467.235, 194 469.560 C 194 472.491, 194.485 473.972, 195.582 474.393 C 197.648 475.186, 313.352 475.186, 315.418 474.393 C 316.420 474.009, 317 472.572, 317 470.475 C 317 463.453, 322.195 464, 255.560 464 C 222.435 464, 195.033 464.300, 194.667 464.667" stroke="none" fill="black" fill-rule="evenodd"/>
</svg>